<svg width="400" height="400" version="1.1" xmlns="http://www.w3.org/2000/svg" desc="Created with imagetracer.js version 1.2.6" ><path fill="rgb(2,0,1)" stroke="rgb(2,0,1)" stroke-width="1" opacity="0.9294117647058824" d="M 297.5 0 L 301 1.5 L 299.5 2 L 297.5 0 Z " /><path fill="rgb(2,0,1)" stroke="rgb(2,0,1)" stroke-width="1" opacity="0.9294117647058824" d="M 304.5 3 L 310 6.5 L 308.5 6 Q 304.5 5.5 304.5 3 Z " /><path fill="rgb(2,0,1)" stroke="rgb(2,0,1)" stroke-width="1" opacity="0.9294117647058824" d="M 93.5 4 L 92.5 6 L 91 5.5 L 93.5 4 Z " /><path fill="rgb(2,0,1)" stroke="rgb(2,0,1)" stroke-width="1" opacity="0.9294117647058824" d="M 313.5 8 L 314.5 10 L 313.5 8 Z " /><path fill="rgb(2,0,1)" stroke="rgb(2,0,1)" stroke-width="1" opacity="0.9294117647058824" d="M 84.5 9 L 86 9.5 L 78.5 14 L 79.5 12 L 84.5 9 Z " /><path fill="rgb(2,0,1)" stroke="rgb(2,0,1)" stroke-width="1" opacity="0.9294117647058824" d="M 318.5 12 L 324 15.5 L 322.5 15 Q 317.8 14.2 318.5 12 Z " /><path fill="rgb(2,0,1)" stroke="rgb(2,0,1)" stroke-width="1" opacity="0.9294117647058824" d="M 76.5 14 L 75.5 16 L 76.5 14 Z " /><path fill="rgb(2,0,1)" stroke="rgb(2,0,1)" stroke-width="1" opacity="0.9294117647058824" d="M 325.5 16 L 326.5 18 L 325.5 16 Z " /><path fill="rgb(2,0,1)" stroke="rgb(2,0,1)" stroke-width="1" opacity="0.9294117647058824" d="M 71.5 18 L 70.5 20 L 68.5 21 L 69.5 19 L 71.5 18 Z " /><path fill="rgb(2,0,1)" stroke="rgb(2,0,1)" stroke-width="1" opacity="0.9294117647058824" d="M 328.5 18 L 334 22.5 L 332.5 22 L 328.5 18 Z " /><path fill="rgb(2,0,1)" stroke="rgb(2,0,1)" stroke-width="1" opacity="0.9294117647058824" d="M 65.5 22 L 67 22.5 L 64.5 24 L 65.5 22 Z " /><path fill="rgb(2,0,1)" stroke="rgb(2,0,1)" stroke-width="1" opacity="0.9294117647058824" d="M 336.5 24 L 338.5 27 L 336.5 24 Z " /><path fill="rgb(2,0,1)" stroke="rgb(2,0,1)" stroke-width="1" opacity="0.9294117647058824" d="M 60.5 26 L 59.5 28 L 60.5 26 Z " /><path fill="rgb(2,0,1)" stroke="rgb(2,0,1)" stroke-width="1" opacity="0.9294117647058824" d="M 56.5 29 L 57 30.5 L 54.5 32 L 56.5 29 Z " /><path fill="rgb(2,0,1)" stroke="rgb(2,0,1)" stroke-width="1" opacity="0.9294117647058824" d="M 52.5 33 L 49.5 37 L 52.5 33 Z " /><path fill="rgb(2,0,1)" stroke="rgb(2,0,1)" stroke-width="1" opacity="0.9294117647058824" d="M 348.5 35 L 356 41.5 L 351.5 38 L 348.5 35 Z " /><path fill="rgb(2,0,1)" stroke="rgb(2,0,1)" stroke-width="1" opacity="0.9294117647058824" d="M 45.5 40 L 44.5 42 L 45.5 40 Z " /><path fill="rgb(2,0,1)" stroke="rgb(2,0,1)" stroke-width="1" opacity="0.9294117647058824" d="M 361.5 47 L 362.5 49 L 361.5 47 Z " /><path fill="rgb(2,0,1)" stroke="rgb(2,0,1)" stroke-width="1" opacity="0.9294117647058824" d="M 37.5 48 L 35.5 51 L 37.5 48 Z " /><path fill="rgb(2,0,1)" stroke="rgb(2,0,1)" stroke-width="1" opacity="0.9294117647058824" d="M 364.5 50 L 370 56.5 L 364 51.5 L 364.5 50 Z " /><path fill="rgb(2,0,1)" stroke="rgb(2,0,1)" stroke-width="1" opacity="0.9294117647058824" d="M 33.5 52 L 34 54 Q 31.3 52.9 32 55.5 L 27 59.5 L 33.5 52 Z " /><path fill="rgb(2,0,1)" stroke="rgb(2,0,1)" stroke-width="1" opacity="0.9294117647058824" d="M 159.5 58 L 163 58.5 L 159.5 59 L 159.5 58 Z " /><path fill="rgb(2,0,1)" stroke="rgb(2,0,1)" stroke-width="1" opacity="0.9294117647058824" d="M 371.5 58 L 375 62.5 L 371 59.5 L 371.5 58 Z " /><path fill="rgb(2,0,1)" stroke="rgb(2,0,1)" stroke-width="1" opacity="0.9294117647058824" d="M 157.5 59 L 158 61.5 L 157 61.5 L 157.5 59 Z " /><path fill="rgb(2,0,1)" stroke="rgb(2,0,1)" stroke-width="1" opacity="0.9294117647058824" d="M 205.5 59 L 224 59.5 L 205.5 60 L 205.5 59 Z " /><path fill="rgb(2,0,1)" stroke="rgb(2,0,1)" stroke-width="1" opacity="0.9294117647058824" d="M 228.5 59 L 231 60.5 L 230.5 62 L 230 60 L 228.5 59 Z " /><path fill="rgb(2,0,1)" stroke="rgb(2,0,1)" stroke-width="1" opacity="0.9294117647058824" d="M 26.5 61 L 24 64.5 Q 24.8 66.8 22.5 66 L 26.5 61 Z " /><path fill="rgb(2,0,1)" stroke="rgb(2,0,1)" stroke-width="1" opacity="0.9294117647058824" d="M 230.5 63 L 231 68.5 L 230 68.5 L 230.5 63 Z " /><path fill="rgb(2,0,1)" stroke="rgb(2,0,1)" stroke-width="1" opacity="0.9294117647058824" d="M 157.5 64 L 158 80.5 L 157 80.5 L 157.5 64 Z " /><path fill="rgb(2,0,1)" stroke="rgb(2,0,1)" stroke-width="1" opacity="0.9294117647058824" d="M 377.5 66 L 378.5 68 L 377.5 66 Z " /><path fill="rgb(2,0,1)" stroke="rgb(2,0,1)" stroke-width="1" opacity="0.9294117647058824" d="M 21.5 67 L 21 68.5 L 18.5 72 L 20 69.5 L 21.5 67 Z " /><path fill="rgb(2,0,1)" stroke="rgb(2,0,1)" stroke-width="1" opacity="0.9294117647058824" d="M 382.5 73 L 386 77.5 L 383 75.5 L 382.5 73 Z " /><path fill="rgb(2,0,1)" stroke="rgb(2,0,1)" stroke-width="1" opacity="0.9294117647058824" d="M 12.5 80 L 13 81.5 L 11 82.5 L 12.5 80 Z " /><path fill="rgb(2,0,1)" stroke="rgb(2,0,1)" stroke-width="1" opacity="0.9294117647058824" d="M 388.5 82 L 390 84.5 L 388 83.5 L 388.5 82 Z " /><path fill="rgb(2,0,1)" stroke="rgb(2,0,1)" stroke-width="1" opacity="0.9294117647058824" d="M 390.5 86 L 391.5 88 L 390.5 86 Z " /><path fill="rgb(2,0,1)" stroke="rgb(2,0,1)" stroke-width="1" opacity="0.9294117647058824" d="M 6.5 90 L 7 91.5 L 5 92.5 L 6.5 90 Z " /><path fill="rgb(2,0,1)" stroke="rgb(2,0,1)" stroke-width="1" opacity="0.9294117647058824" d="M 229.5 96 L 230 99.5 L 229 99.5 L 229.5 96 Z " /><path fill="rgb(2,0,1)" stroke="rgb(2,0,1)" stroke-width="1" opacity="0.9294117647058824" d="M 1 98 L 3 98.5 L 0.5 103 L 0 100.5 L 1 98 Z " /><path fill="rgb(2,0,1)" stroke="rgb(2,0,1)" stroke-width="1" opacity="0.9294117647058824" d="M 156.5 98 L 157 100 L 155 99.5 L 156.5 98 Z " /><path fill="rgb(2,0,1)" stroke="rgb(2,0,1)" stroke-width="1" opacity="0.9294117647058824" d="M 123.5 99 L 133 99.5 L 123.5 100 L 123.5 99 Z " /><path fill="rgb(2,0,1)" stroke="rgb(2,0,1)" stroke-width="1" opacity="0.9294117647058824" d="M 105.5 104 L 106 107.5 L 105 107.5 L 105.5 104 Z " /><path fill="rgb(2,0,1)" stroke="rgb(2,0,1)" stroke-width="1" opacity="0.9294117647058824" d="M 244.5 104 L 248 104.5 L 244.5 105 L 244.5 104 Z " /><path fill="rgb(2,0,1)" stroke="rgb(2,0,1)" stroke-width="1" opacity="0.9294117647058824" d="M 249.5 105 L 252 105.5 L 249.5 106 L 249.5 105 Z " /><path fill="rgb(2,0,1)" stroke="rgb(2,0,1)" stroke-width="1" opacity="0.9294117647058824" d="M 262.5 109 L 265 110.5 L 263.5 111 L 262.5 109 Z " /><path fill="rgb(2,0,1)" stroke="rgb(2,0,1)" stroke-width="1" opacity="0.9294117647058824" d="M 275.5 117 L 278 118 L 279 120.5 L 275.5 117 Z " /><path fill="rgb(2,0,1)" stroke="rgb(2,0,1)" stroke-width="1" opacity="0.9294117647058824" d="M 280.5 121 L 283 124.5 L 280 122.5 L 280.5 121 Z " /><path fill="rgb(2,0,1)" stroke="rgb(2,0,1)" stroke-width="1" opacity="0.9294117647058824" d="M 104.5 124 L 105 127.5 L 104 127.5 L 104.5 124 Z " /><path fill="rgb(2,0,1)" stroke="rgb(2,0,1)" stroke-width="1" opacity="0.9294117647058824" d="M 284.5 127 L 288 133.5 L 287 133.5 L 284.5 127 Z " /><path fill="rgb(2,0,1)" stroke="rgb(2,0,1)" stroke-width="1" opacity="0.9294117647058824" d="M 106.5 128 L 122 128.5 L 106.5 129 L 106.5 128 Z " /><path fill="rgb(2,0,1)" stroke="rgb(2,0,1)" stroke-width="1" opacity="0.9294117647058824" d="M 132.5 131 L 133.5 133 L 132.5 131 Z " /><path fill="rgb(2,0,1)" stroke="rgb(2,0,1)" stroke-width="1" opacity="0.9294117647058824" d="M 197.5 131 L 202 131.5 L 197.5 132 L 197.5 131 Z " /><path fill="rgb(2,0,1)" stroke="rgb(2,0,1)" stroke-width="1" opacity="0.9294117647058824" d="M 204.5 131 L 208 131.5 L 204.5 132 L 204.5 131 Z " /><path fill="rgb(2,0,1)" stroke="rgb(2,0,1)" stroke-width="1" opacity="0.9294117647058824" d="M 214.5 133 L 220 136.5 L 218.5 136 Q 214.5 135.5 214.5 133 Z " /><path fill="rgb(2,0,1)" stroke="rgb(2,0,1)" stroke-width="1" opacity="0.9294117647058824" d="M 190.5 134 L 189.5 136 L 187.5 137 L 188.5 135 L 190.5 134 Z " /><path fill="rgb(2,0,1)" stroke="rgb(2,0,1)" stroke-width="1" opacity="0.9294117647058824" d="M 185.5 137 L 185 138.5 L 180.5 144 L 182 141.5 L 185.5 137 Z " /><path fill="rgb(2,0,1)" stroke="rgb(2,0,1)" stroke-width="1" opacity="0.9294117647058824" d="M 221.5 138 L 228 145.5 L 226 144.5 L 221.5 138 Z " /><path fill="rgb(2,0,1)" stroke="rgb(2,0,1)" stroke-width="1" opacity="0.9294117647058824" d="M 137.5 141 L 138 158.5 L 137 158.5 L 137.5 141 Z " /><path fill="rgb(2,0,1)" stroke="rgb(2,0,1)" stroke-width="1" opacity="0.9294117647058824" d="M 290.5 145 L 291 156.5 L 290 156.5 L 290.5 145 Z " /><path fill="rgb(2,0,1)" stroke="rgb(2,0,1)" stroke-width="1" opacity="0.9294117647058824" d="M 229.5 150 L 230 152.5 L 229 152.5 L 229.5 150 Z " /><path fill="rgb(2,0,1)" stroke="rgb(2,0,1)" stroke-width="1" opacity="0.9294117647058824" d="M 230.5 154 L 231 161.5 L 230 161.5 L 230.5 154 Z " /><path fill="rgb(2,0,1)" stroke="rgb(2,0,1)" stroke-width="1" opacity="0.9294117647058824" d="M 176.5 164 L 178 168.5 L 177 168.5 L 176.5 164 Z " /><path fill="rgb(2,0,1)" stroke="rgb(2,0,1)" stroke-width="1" opacity="0.9294117647058824" d="M 229.5 164 L 230 166.5 L 229 166.5 L 229.5 164 Z " /><path fill="rgb(2,0,1)" stroke="rgb(2,0,1)" stroke-width="1" opacity="0.9294117647058824" d="M 178.5 170 L 180 172.5 L 179 172.5 L 178.5 170 Z " /><path fill="rgb(2,0,1)" stroke="rgb(2,0,1)" stroke-width="1" opacity="0.9294117647058824" d="M 226.5 173 L 223.5 177 L 226.5 173 Z " /><path fill="rgb(2,0,1)" stroke="rgb(2,0,1)" stroke-width="1" opacity="0.9294117647058824" d="M 181.5 175 L 186 178 Q 184.9 180.7 187.5 180 L 190 181.5 L 188.5 182 L 181.5 175 Z " /><path fill="rgb(2,0,1)" stroke="rgb(2,0,1)" stroke-width="1" opacity="0.9294117647058824" d="M 283.5 176 L 284 177.5 L 281 179.5 L 283.5 176 Z " /><path fill="rgb(2,0,1)" stroke="rgb(2,0,1)" stroke-width="1" opacity="0.9294117647058824" d="M 221.5 178 L 218.5 182 L 216.5 183 L 219.5 179 L 221.5 178 Z " /><path fill="rgb(2,0,1)" stroke="rgb(2,0,1)" stroke-width="1" opacity="0.9294117647058824" d="M 279.5 181 L 277.5 184 L 279.5 181 Z " /><path fill="rgb(2,0,1)" stroke="rgb(2,0,1)" stroke-width="1" opacity="0.9294117647058824" d="M 136.5 182 L 137 206.5 L 136 206.5 L 136.5 182 Z " /><path fill="rgb(2,0,1)" stroke="rgb(2,0,1)" stroke-width="1" opacity="0.9294117647058824" d="M 199.5 184 L 207 185.5 L 200.5 186 L 199.5 184 Z " /><path fill="rgb(2,0,1)" stroke="rgb(2,0,1)" stroke-width="1" opacity="0.9294117647058824" d="M 274.5 185 L 276 185.5 L 273.5 187 L 274.5 185 Z " /><path fill="rgb(2,0,1)" stroke="rgb(2,0,1)" stroke-width="1" opacity="0.9294117647058824" d="M 284.5 194 L 287.5 198 L 284.5 194 Z " /><path fill="rgb(2,0,1)" stroke="rgb(2,0,1)" stroke-width="1" opacity="0.9294117647058824" d="M 206.5 201 L 214 201.5 L 206.5 202 L 206.5 201 Z " /><path fill="rgb(2,0,1)" stroke="rgb(2,0,1)" stroke-width="1" opacity="0.9294117647058824" d="M 216.5 202 L 219 202.5 L 216.5 203 L 216.5 202 Z " /><path fill="rgb(2,0,1)" stroke="rgb(2,0,1)" stroke-width="1" opacity="0.9294117647058824" d="M 195.5 204 L 197 204.5 Q 188.5 207.5 183.5 214 L 188.5 208 L 195.5 204 Z " /><path fill="rgb(2,0,1)" stroke="rgb(2,0,1)" stroke-width="1" opacity="0.9294117647058824" d="M 297.5 208 L 301 214.5 L 300 214.5 L 297.5 208 Z " /><path fill="rgb(2,0,1)" stroke="rgb(2,0,1)" stroke-width="1" opacity="0.9294117647058824" d="M 234.5 212 L 235.5 214 L 234.5 212 Z " /><path fill="rgb(2,0,1)" stroke="rgb(2,0,1)" stroke-width="1" opacity="0.9294117647058824" d="M 239.5 218 L 242 222.5 L 240 223 L 239.5 218 Z " /><path fill="rgb(2,0,1)" stroke="rgb(2,0,1)" stroke-width="1" opacity="0.9294117647058824" d="M 302.5 220 L 303 223.5 L 302 223.5 L 302.5 220 Z " /><path fill="rgb(2,0,1)" stroke="rgb(2,0,1)" stroke-width="1" opacity="0.9294117647058824" d="M 241.5 224 L 243 227.5 L 242 227.5 L 241.5 224 Z " /><path fill="rgb(2,0,1)" stroke="rgb(2,0,1)" stroke-width="1" opacity="0.9294117647058824" d="M 135.5 226 L 136 249.5 L 135 249.5 L 135.5 226 Z " /><path fill="rgb(2,0,1)" stroke="rgb(2,0,1)" stroke-width="1" opacity="0.9294117647058824" d="M 243.5 229 L 244 231.5 L 243 231.5 L 243.5 229 Z " /><path fill="rgb(2,0,1)" stroke="rgb(2,0,1)" stroke-width="1" opacity="0.9294117647058824" d="M 243.5 238 L 244 240.5 L 243 240.5 L 243.5 238 Z " /><path fill="rgb(2,0,1)" stroke="rgb(2,0,1)" stroke-width="1" opacity="0.9294117647058824" d="M 176.5 240 L 178 245.5 L 177 245.5 L 176.5 240 Z " /><path fill="rgb(2,0,1)" stroke="rgb(2,0,1)" stroke-width="1" opacity="0.9294117647058824" d="M 242.5 243 L 243 245.5 L 242 245.5 L 242.5 243 Z " /><path fill="rgb(2,0,1)" stroke="rgb(2,0,1)" stroke-width="1" opacity="0.9294117647058824" d="M 302.5 243 L 303 246.5 L 302 246.5 L 302.5 243 Z " /><path fill="rgb(2,0,1)" stroke="rgb(2,0,1)" stroke-width="1" opacity="0.9294117647058824" d="M 178.5 248 L 181 252.5 L 180 252.5 L 178.5 248 Z " /><path fill="rgb(2,0,1)" stroke="rgb(2,0,1)" stroke-width="1" opacity="0.9294117647058824" d="M 240.5 249 L 241 250.5 L 238.5 254 L 239 252.5 L 240.5 249 Z " /><path fill="rgb(2,0,1)" stroke="rgb(2,0,1)" stroke-width="1" opacity="0.9294117647058824" d="M 301.5 250 L 302 252.5 L 301 252.5 L 301.5 250 Z " /><path fill="rgb(2,0,1)" stroke="rgb(2,0,1)" stroke-width="1" opacity="0.9294117647058824" d="M 300.5 254 L 301 256.5 L 299 257.5 L 300.5 254 Z " /><path fill="rgb(2,0,1)" stroke="rgb(2,0,1)" stroke-width="1" opacity="0.9294117647058824" d="M 182.5 255 L 184.5 258 L 182.5 255 Z " /><path fill="rgb(2,0,1)" stroke="rgb(2,0,1)" stroke-width="1" opacity="0.9294117647058824" d="M 133.5 256 L 132.5 258 L 133.5 256 Z " /><path fill="rgb(2,0,1)" stroke="rgb(2,0,1)" stroke-width="1" opacity="0.9294117647058824" d="M 114.5 259 L 121 259.5 L 114.5 260 L 114.5 259 Z " /><path fill="rgb(2,0,1)" stroke="rgb(2,0,1)" stroke-width="1" opacity="0.9294117647058824" d="M 122.5 259 L 125 259.5 L 122.5 260 L 122.5 259 Z " /><path fill="rgb(2,0,1)" stroke="rgb(2,0,1)" stroke-width="1" opacity="0.9294117647058824" d="M 233.5 259 L 231.5 262 L 231 260 L 233.5 259 Z " /><path fill="rgb(2,0,1)" stroke="rgb(2,0,1)" stroke-width="1" opacity="0.9294117647058824" d="M 298.5 259 L 299 260.5 L 298 264 L 296 263.5 L 298.5 259 Z " /><path fill="rgb(2,0,1)" stroke="rgb(2,0,1)" stroke-width="1" opacity="0.9294117647058824" d="M 187.5 260 L 189.5 263 L 187.5 260 Z " /><path fill="rgb(2,0,1)" stroke="rgb(2,0,1)" stroke-width="1" opacity="0.9294117647058824" d="M 106.5 261 L 107 264.5 L 105.5 267 L 105 265.5 L 106.5 261 Z " /><path fill="rgb(2,0,1)" stroke="rgb(2,0,1)" stroke-width="1" opacity="0.9294117647058824" d="M 228 262 L 230 262.5 L 228 263.5 L 228 262 Z " /><path fill="rgb(2,0,1)" stroke="rgb(2,0,1)" stroke-width="1" opacity="0.9294117647058824" d="M 191.5 263 L 192.5 265 L 191.5 263 Z " /><path fill="rgb(2,0,1)" stroke="rgb(2,0,1)" stroke-width="1" opacity="0.9294117647058824" d="M 194.5 265 L 199 266.5 L 196.5 267 L 194.5 265 Z " /><path fill="rgb(2,0,1)" stroke="rgb(2,0,1)" stroke-width="1" opacity="0.9294117647058824" d="M 295.5 265 L 296 266.5 L 292 273 L 289.5 274 L 293 269.5 L 295.5 265 Z " /><path fill="rgb(2,0,1)" stroke="rgb(2,0,1)" stroke-width="1" opacity="0.9294117647058824" d="M 220.5 266 L 222 266.5 L 218.5 268 L 218.5 267 L 220.5 266 Z " /><path fill="rgb(2,0,1)" stroke="rgb(2,0,1)" stroke-width="1" opacity="0.9294117647058824" d="M 207.5 268 L 216 268.5 L 207.5 269 L 207.5 268 Z " /><path fill="rgb(2,0,1)" stroke="rgb(2,0,1)" stroke-width="1" opacity="0.9294117647058824" d="M 285.5 277 L 284.5 279 L 285.5 277 Z " /><path fill="rgb(2,0,1)" stroke="rgb(2,0,1)" stroke-width="1" opacity="0.9294117647058824" d="M 280.5 281 L 279.5 283 L 278 282.5 L 280.5 281 Z " /><path fill="rgb(2,0,1)" stroke="rgb(2,0,1)" stroke-width="1" opacity="0.9294117647058824" d="M 102.5 283 L 103 285.5 L 102 285.5 L 102.5 283 Z " /><path fill="rgb(2,0,1)" stroke="rgb(2,0,1)" stroke-width="1" opacity="0.9294117647058824" d="M 276.5 283 L 275.5 285 L 274 284.5 L 276.5 283 Z " /><path fill="rgb(2,0,1)" stroke="rgb(2,0,1)" stroke-width="1" opacity="0.9294117647058824" d="M 270.5 286 L 269.5 288 L 267 287.5 L 270.5 286 Z " /><path fill="rgb(2,0,1)" stroke="rgb(2,0,1)" stroke-width="1" opacity="0.9294117647058824" d="M 101.5 287 L 102 290.5 L 101 290.5 L 101.5 287 Z " /><path fill="rgb(2,0,1)" stroke="rgb(2,0,1)" stroke-width="1" opacity="0.9294117647058824" d="M 264.5 288 L 266 288.5 L 262.5 290 L 262.5 289 L 264.5 288 Z " /><path fill="rgb(2,0,1)" stroke="rgb(2,0,1)" stroke-width="1" opacity="0.9294117647058824" d="M 257.5 290 L 261 290.5 L 256.5 292 L 257.5 290 Z " /><path fill="rgb(2,0,1)" stroke="rgb(2,0,1)" stroke-width="1" opacity="0.9294117647058824" d="M 104.5 292 L 107 292.5 L 104.5 293 L 104.5 292 Z " /><path fill="rgb(2,0,1)" stroke="rgb(2,0,1)" stroke-width="1" opacity="0.9294117647058824" d="M 112.5 292 L 141 292.5 L 112.5 293 L 112.5 292 Z " /><path fill="rgb(2,0,1)" stroke="rgb(2,0,1)" stroke-width="1" opacity="0.9294117647058824" d="M 247.5 292 L 250 292.5 L 247.5 293 L 247.5 292 Z " /><path fill="rgb(2,0,1)" stroke="rgb(2,0,1)" stroke-width="1" opacity="0.9294117647058824" d="M 151.5 293 Q 153.8 294.8 153 299.5 L 152 299.5 L 151.5 293 Z " /><path fill="rgb(2,0,1)" stroke="rgb(2,0,1)" stroke-width="1" opacity="0.9294117647058824" d="M 240.5 293 L 243 293.5 L 240.5 294 L 240.5 293 Z " /><path fill="rgb(2,0,1)" stroke="rgb(2,0,1)" stroke-width="1" opacity="0.9294117647058824" d="M 230.5 294 L 234 294.5 L 230.5 295 L 230.5 294 Z " /><path fill="rgb(2,0,1)" stroke="rgb(2,0,1)" stroke-width="1" opacity="0.9294117647058824" d="M 0.5 297 L 8 311.5 L 7 311.5 L 0 298.5 L 0.5 297 Z " /><path fill="rgb(2,0,1)" stroke="rgb(2,0,1)" stroke-width="1" opacity="0.9294117647058824" d="M 399.5 297 L 400 298.5 L 397.5 302 L 397 300.5 L 399.5 297 Z " /><path fill="rgb(2,0,1)" stroke="rgb(2,0,1)" stroke-width="1" opacity="0.9294117647058824" d="M 225.5 298 L 226 316.5 L 225 316.5 L 225.5 298 Z " /><path fill="rgb(2,0,1)" stroke="rgb(2,0,1)" stroke-width="1" opacity="0.9294117647058824" d="M 394.5 306 L 395 307.5 L 393 308.5 L 394.5 306 Z " /><path fill="rgb(2,0,1)" stroke="rgb(2,0,1)" stroke-width="1" opacity="0.9294117647058824" d="M 391.5 312 L 390 314.5 L 389.5 316 L 389 314.5 L 391.5 312 Z " /><path fill="rgb(2,0,1)" stroke="rgb(2,0,1)" stroke-width="1" opacity="0.9294117647058824" d="M 9.5 314 L 11 316.5 L 10 316.5 L 9.5 314 Z " /><path fill="rgb(2,0,1)" stroke="rgb(2,0,1)" stroke-width="1" opacity="0.9294117647058824" d="M 388.5 317 L 387 319.5 L 385.5 322 L 386 320.5 L 388.5 317 Z " /><path fill="rgb(2,0,1)" stroke="rgb(2,0,1)" stroke-width="1" opacity="0.9294117647058824" d="M 12.5 318 L 17 325.5 L 15 324.5 L 12 319.5 L 12.5 318 Z " /><path fill="rgb(2,0,1)" stroke="rgb(2,0,1)" stroke-width="1" opacity="0.9294117647058824" d="M 151.5 319 L 152 335 L 158 335.5 L 152.5 336 L 151 334.5 L 151.5 319 Z " /><path fill="rgb(2,0,1)" stroke="rgb(2,0,1)" stroke-width="1" opacity="0.9294117647058824" d="M 225.5 320 L 226 322.5 L 225 322.5 L 225.5 320 Z " /><path fill="rgb(2,0,1)" stroke="rgb(2,0,1)" stroke-width="1" opacity="0.9294117647058824" d="M 384.5 323 L 383 325.5 L 376.5 335 L 376 333.5 L 384.5 323 Z " /><path fill="rgb(2,0,1)" stroke="rgb(2,0,1)" stroke-width="1" opacity="0.9294117647058824" d="M 23.5 334 L 26 337.5 L 23 335.5 L 23.5 334 Z " /><path fill="rgb(2,0,1)" stroke="rgb(2,0,1)" stroke-width="1" opacity="0.9294117647058824" d="M 190.5 336 L 213 336.5 L 190.5 337 L 190.5 336 Z " /><path fill="rgb(2,0,1)" stroke="rgb(2,0,1)" stroke-width="1" opacity="0.9294117647058824" d="M 374.5 337 L 373.5 339 L 374.5 337 Z " /><path fill="rgb(2,0,1)" stroke="rgb(2,0,1)" stroke-width="1" opacity="0.9294117647058824" d="M 27.5 340 Q 29.8 339.3 29 341.5 L 34 348 Q 36.7 346.9 36 349.5 L 37.5 352 L 27.5 340 Z " /><path fill="rgb(2,0,1)" stroke="rgb(2,0,1)" stroke-width="1" opacity="0.9294117647058824" d="M 370.5 342 L 366.5 347 L 367 345.5 Q 366.3 343.3 368.5 344 L 370.5 342 Z " /><path fill="rgb(2,0,1)" stroke="rgb(2,0,1)" stroke-width="1" opacity="0.9294117647058824" d="M 39.5 353 L 41.5 356 L 39.5 353 Z " /><path fill="rgb(2,0,1)" stroke="rgb(2,0,1)" stroke-width="1" opacity="0.9294117647058824" d="M 360.5 353 L 353.5 361 L 355 358.5 L 358.5 354 L 360.5 353 Z " /><path fill="rgb(2,0,1)" stroke="rgb(2,0,1)" stroke-width="1" opacity="0.9294117647058824" d="M 43.5 357 L 48.5 363 L 43.5 357 Z " /><path fill="rgb(2,0,1)" stroke="rgb(2,0,1)" stroke-width="1" opacity="0.9294117647058824" d="M 351.5 361 L 352 362.5 L 350 363.5 L 351.5 361 Z " /><path fill="rgb(2,0,1)" stroke="rgb(2,0,1)" stroke-width="1" opacity="0.9294117647058824" d="M 50.5 364 L 57 369.5 L 54.5 368 L 50.5 364 Z " /><path fill="rgb(2,0,1)" stroke="rgb(2,0,1)" stroke-width="1" opacity="0.9294117647058824" d="M 345.5 367 L 342.5 371 L 342 369 L 345.5 367 Z " /><path fill="rgb(2,0,1)" stroke="rgb(2,0,1)" stroke-width="1" opacity="0.9294117647058824" d="M 58.5 371 L 66 376 L 65.5 378 L 58.5 371 Z " /><path fill="rgb(2,0,1)" stroke="rgb(2,0,1)" stroke-width="1" opacity="0.9294117647058824" d="M 339.5 372 L 336.5 376 L 336 374 L 339.5 372 Z " /><path fill="rgb(2,0,1)" stroke="rgb(2,0,1)" stroke-width="1" opacity="0.9294117647058824" d="M 333.5 377 L 331.5 380 L 328.5 382 L 328 380 L 333.5 377 Z " /><path fill="rgb(2,0,1)" stroke="rgb(2,0,1)" stroke-width="1" opacity="0.9294117647058824" d="M 67.5 378 L 72 381.5 L 69.5 380 L 67.5 378 Z " /><path fill="rgb(2,0,1)" stroke="rgb(2,0,1)" stroke-width="1" opacity="0.9294117647058824" d="M 326.5 382 L 325.5 384 L 324 383.5 L 326.5 382 Z " /><path fill="rgb(2,0,1)" stroke="rgb(2,0,1)" stroke-width="1" opacity="0.9294117647058824" d="M 74.5 383 L 81 387.5 L 79.5 387 Q 74.9 385.8 74.5 383 Z " /><path fill="rgb(2,0,1)" stroke="rgb(2,0,1)" stroke-width="1" opacity="0.9294117647058824" d="M 82.5 388 L 86 390.5 L 84.5 390 L 82.5 388 Z " /><path fill="rgb(2,0,1)" stroke="rgb(2,0,1)" stroke-width="1" opacity="0.9294117647058824" d="M 313.5 390 L 315 390.5 L 311.5 393 L 313.5 390 Z " /><path fill="rgb(2,0,1)" stroke="rgb(2,0,1)" stroke-width="1" opacity="0.9294117647058824" d="M 308.5 393 L 310 393.5 L 305.5 396 L 305.5 395 L 308.5 393 Z " /><path fill="rgb(2,0,1)" stroke="rgb(2,0,1)" stroke-width="1" opacity="0.9294117647058824" d="M 95.5 396 L 100 398.5 L 98.5 398 Q 94.8 397.7 95.5 396 Z " /><path fill="rgb(2,0,1)" stroke="rgb(2,0,1)" stroke-width="1" opacity="0.9294117647058824" d="M 300.5 397 L 302 397.5 L 299.5 399 L 300.5 397 Z " /><path fill="rgb(48,43,46)" stroke="rgb(48,43,46)" stroke-width="1" opacity="0.1607843137254902" d="M 95.5 1 L 97 1.5 L 81.5 10 L 55 29 Q 56.1 31.7 53.5 31 L 45 38.5 L 31 53.5 L 31 55 L 29 54.5 L 49.5 33 Q 69.7 14.2 95.5 1 Z " /><path fill="rgb(48,43,46)" stroke="rgb(48,43,46)" stroke-width="1" opacity="0.1607843137254902" d="M 307.5 3 L 310 4.5 L 308.5 5 L 307.5 3 Z " /><path fill="rgb(48,43,46)" stroke="rgb(48,43,46)" stroke-width="1" opacity="0.1607843137254902" d="M 311.5 5 L 321 11.5 L 319.5 11 Q 313 9.3 311.5 5 Z " /><path fill="rgb(48,43,46)" stroke="rgb(48,43,46)" stroke-width="1" opacity="0.1607843137254902" d="M 322.5 12 Q 349.4 29.6 370 53.5 L 378 63.5 L 374 60.5 L 350.5 35 Q 348.3 35.8 349 33.5 L 331.5 19 L 324.5 15 L 322.5 12 Z " /><path fill="rgb(48,43,46)" stroke="rgb(48,43,46)" stroke-width="1" opacity="0.1607843137254902" d="M 27 56 L 29 56.5 Q 14.1 72.6 3.5 93 L 3 91.5 L 27 56 Z " /><path fill="rgb(48,43,46)" stroke="rgb(48,43,46)" stroke-width="1" opacity="0.1607843137254902" d="M 159.5 59 L 160.5 60 L 212.5 60 L 213.5 61 L 230 61 L 230 68.5 L 229 69.5 L 229 103 L 241.5 104 L 259.5 109 L 277 119 L 278.5 122 Q 280.8 121.3 280 123.5 L 287 134.5 L 289 140.5 L 290 153.5 L 287 168.5 Q 283.1 178.1 275.5 184 L 269 188.5 L 272 190.5 L 270.5 191 L 268 190 L 269.5 186 L 279 179.5 Q 285.5 172.5 288 161.5 L 288 140.5 Q 284.2 126.8 274.5 119 L 270 117 Q 271.1 114.3 268.5 115 L 253.5 108 L 245.5 107 L 241.5 105 L 229.5 104 L 228 102.5 L 228 64.5 L 229 62 L 213.5 62 L 212.5 61 L 159 61 L 158.5 98 L 158 60.5 L 159.5 59 Z " /><path fill="rgb(48,43,46)" stroke="rgb(48,43,46)" stroke-width="1" opacity="0.1607843137254902" d="M 378.5 65 L 380.5 68 L 378.5 65 Z " /><path fill="rgb(48,43,46)" stroke="rgb(48,43,46)" stroke-width="1" opacity="0.1607843137254902" d="M 381.5 69 L 389 79.5 L 387 78.5 L 381.5 69 Z " /><path fill="rgb(48,43,46)" stroke="rgb(48,43,46)" stroke-width="1" opacity="0.1607843137254902" d="M 389.5 81 L 390.5 83 L 389.5 81 Z " /><path fill="rgb(48,43,46)" stroke="rgb(48,43,46)" stroke-width="1" opacity="0.1607843137254902" d="M 2.5 94 L 2 95.5 L 1.5 97 L 1 95.5 L 2.5 94 Z " /><path fill="rgb(48,43,46)" stroke="rgb(48,43,46)" stroke-width="1" opacity="0.1607843137254902" d="M 157 99 Q 159.7 97.9 159 100.5 L 157.5 102 L 128.5 102 L 127.5 101 L 107 101 L 107 127 L 128.5 127 Q 134.3 128.3 137 132.5 L 139 136.5 L 139 189.5 L 138 189.5 L 138 136.5 L 135 131 L 128.5 128 L 106 128 L 106 101.5 L 107.5 100 L 157 101 L 157 99 Z " /><path fill="rgb(48,43,46)" stroke="rgb(48,43,46)" stroke-width="1" opacity="0.1607843137254902" d="M 199.5 129 Q 219.4 128.6 227 140.5 Q 231.8 145.2 232 154.5 L 231 154.5 L 229 145.5 L 219.5 135 Q 212.7 129.3 199.5 130 Q 187.4 132.4 181 140.5 Q 173.6 148.1 175 164.5 Q 177.9 174.1 184.5 180 Q 189.9 185.6 200 186.5 L 195.5 187 Q 183.9 183.6 178 174.5 L 174 164.5 L 174 152.5 Q 177.3 140.3 186.5 134 L 199.5 129 Z " /><path fill="rgb(48,43,46)" stroke="rgb(48,43,46)" stroke-width="1" opacity="0.1607843137254902" d="M 231.5 162 L 232 166.5 Q 228.9 176.4 221.5 182 L 214.5 186 L 206.5 187 L 206.5 186 Q 220.2 184.7 226 175.5 Q 230.4 170.4 231.5 162 Z " /><path fill="rgb(48,43,46)" stroke="rgb(48,43,46)" stroke-width="1" opacity="0.1607843137254902" d="M 273.5 191 Q 286.9 194.6 294 204.5 L 301 217.5 L 302 222.5 L 302 244.5 L 298 259.5 Q 293.8 269.3 286.5 276 Q 276.8 284.8 262.5 289 L 249.5 292 L 231.5 293 L 231.5 292 L 240.5 292 L 241.5 291 L 253.5 290 L 267.5 286 Q 281.4 280.9 290 270.5 Q 297.3 262.3 300 249.5 Q 298.7 244.7 301 243.5 L 301 222.5 Q 297.5 206 285.5 198 L 273.5 192 L 273.5 191 Z " /><path fill="rgb(48,43,46)" stroke="rgb(48,43,46)" stroke-width="1" opacity="0.1607843137254902" d="M 137.5 193 L 138 234.5 L 137 235.5 L 137 255.5 L 133.5 260 L 132 259.5 L 136 254.5 L 137.5 193 Z " /><path fill="rgb(48,43,46)" stroke="rgb(48,43,46)" stroke-width="1" opacity="0.1607843137254902" d="M 201.5 200 L 207 200.5 Q 189 202.5 181 214.5 L 176 224.5 L 175 241.5 Q 178.5 256.4 189.5 264 Q 195.1 268.4 204 269.5 L 200.5 270 Q 187.8 266.7 181 257.5 Q 175.9 251.1 174 241.5 L 174 228.5 Q 176.8 215.3 185.5 208 L 201.5 200 Z " /><path fill="rgb(48,43,46)" stroke="rgb(48,43,46)" stroke-width="1" opacity="0.1607843137254902" d="M 213.5 200 Q 230.6 201.4 238 212.5 Q 246.6 221.4 246 239.5 Q 242.9 256.9 230.5 265 Q 225.3 269.3 216.5 270 L 216.5 269 Q 230.2 266.7 237 257.5 L 244 243.5 L 244 226.5 Q 240.6 216.5 235 210 L 221.5 202 L 213.5 201 L 213.5 200 Z " /><path fill="rgb(48,43,46)" stroke="rgb(48,43,46)" stroke-width="1" opacity="0.1607843137254902" d="M 109.5 260 L 112 260.5 L 109 261 L 105.5 279 L 105 275.5 L 106 274.5 L 107 263.5 L 109.5 260 Z " /><path fill="rgb(48,43,46)" stroke="rgb(48,43,46)" stroke-width="1" opacity="0.1607843137254902" d="M 128.5 260 L 131 260.5 L 128.5 261 L 128.5 260 Z " /><path fill="rgb(48,43,46)" stroke="rgb(48,43,46)" stroke-width="1" opacity="0.1607843137254902" d="M 205.5 270 L 215 270.5 L 205.5 271 L 205.5 270 Z " /><path fill="rgb(48,43,46)" stroke="rgb(48,43,46)" stroke-width="1" opacity="0.1607843137254902" d="M 104.5 280 L 105 284.5 L 104 290 L 119 290.5 L 103 291 L 104.5 280 Z " /><path fill="rgb(48,43,46)" stroke="rgb(48,43,46)" stroke-width="1" opacity="0.1607843137254902" d="M 127.5 291 L 152.5 291 L 154 292.5 L 153.5 328 L 153 293.5 L 151.5 292 L 127.5 292 L 127.5 291 Z " /><path fill="rgb(48,43,46)" stroke="rgb(48,43,46)" stroke-width="1" opacity="0.1607843137254902" d="M 225.5 293 L 230 293.5 L 225 294 L 224 336 L 209 335.5 L 223 335 L 223 303.5 L 224 302.5 L 224 294.5 L 225.5 293 Z " /><path fill="rgb(48,43,46)" stroke="rgb(48,43,46)" stroke-width="1" opacity="0.1607843137254902" d="M 4.5 309 L 10 317.5 L 8 316.5 L 4.5 309 Z " /><path fill="rgb(48,43,46)" stroke="rgb(48,43,46)" stroke-width="1" opacity="0.1607843137254902" d="M 393.5 311 L 394 312.5 L 392 313.5 L 393.5 311 Z " /><path fill="rgb(48,43,46)" stroke="rgb(48,43,46)" stroke-width="1" opacity="0.1607843137254902" d="M 391.5 315 L 391 316.5 L 387.5 322 L 388 320.5 L 391.5 315 Z " /><path fill="rgb(48,43,46)" stroke="rgb(48,43,46)" stroke-width="1" opacity="0.1607843137254902" d="M 10.5 319 L 11.5 321 L 10.5 319 Z " /><path fill="rgb(48,43,46)" stroke="rgb(48,43,46)" stroke-width="1" opacity="0.1607843137254902" d="M 12.5 322 Q 29.6 347.9 52.5 368 L 75 385.5 L 72.5 384 Q 54.7 373.3 41 358.5 L 39 355.5 Q 22.6 340.6 12.5 322 Z " /><path fill="rgb(48,43,46)" stroke="rgb(48,43,46)" stroke-width="1" opacity="0.1607843137254902" d="M 386.5 323 L 386 324.5 Q 378.6 338.1 367.5 348 L 372 342.5 L 386.5 323 Z " /><path fill="rgb(48,43,46)" stroke="rgb(48,43,46)" stroke-width="1" opacity="0.1607843137254902" d="M 162.5 334 L 197 334.5 L 162.5 335 L 162.5 334 Z " /><path fill="rgb(48,43,46)" stroke="rgb(48,43,46)" stroke-width="1" opacity="0.1607843137254902" d="M 365.5 350 L 350.5 366 L 365.5 350 Z " /><path fill="rgb(48,43,46)" stroke="rgb(48,43,46)" stroke-width="1" opacity="0.1607843137254902" d="M 347.5 367 L 348 369 L 323.5 387 L 324.5 385 L 347.5 367 Z " /><path fill="rgb(48,43,46)" stroke="rgb(48,43,46)" stroke-width="1" opacity="0.1607843137254902" d="M 76.5 386 L 86 392.5 L 84.5 392 Q 78 390.3 76.5 386 Z " /><path fill="rgb(48,43,46)" stroke="rgb(48,43,46)" stroke-width="1" opacity="0.1607843137254902" d="M 321.5 387 L 320.5 389 L 310.5 395 L 311.5 393 L 321.5 387 Z " /><path fill="rgb(48,43,46)" stroke="rgb(48,43,46)" stroke-width="1" opacity="0.1607843137254902" d="M 87.5 393 L 90 394.5 L 88.5 395 L 87.5 393 Z " /><path fill="rgb(48,43,46)" stroke="rgb(48,43,46)" stroke-width="1" opacity="0.1607843137254902" d="M 91.5 395 L 97 398.5 L 95.5 398 Q 91.5 397.5 91.5 395 Z " /><path fill="rgb(48,43,46)" stroke="rgb(48,43,46)" stroke-width="1" opacity="0.1607843137254902" d="M 308.5 395 L 307.5 397 L 304.5 398 L 304.5 397 L 308.5 395 Z " /><path fill="rgb(0,0,0)" stroke="rgb(0,0,0)" stroke-width="1" opacity="1" d="M 102.5 0 L 296.5 0 L 318 11 Q 316.9 13.7 319.5 13 L 340 27 Q 338.9 29.7 341.5 29 L 346 32 L 350.5 38 L 358 44.5 Q 357.3 46.8 359.5 46 L 377 65.5 L 386 78.5 L 386 81 Q 389 79.8 388 83.5 L 395 93.5 L 394.5 95 Q 396.8 94.3 396 96.5 L 400 103.5 L 400 296.5 L 393 307.5 L 392 311.5 L 389 314.5 L 389 316.5 L 368.5 344 Q 366.3 343.3 367 345.5 L 359.5 354 L 355 357.5 L 352.5 361 Q 350.3 360.3 351 362.5 Q 347.6 367.5 342 369 Q 343.1 371.7 340.5 371 L 336 374 L 334.5 377 L 328 380 Q 329.1 382.7 326.5 382 L 324 383 Q 325.1 385.7 322.5 385 L 317.5 389 L 299 398.5 L 298.5 400 L 103.5 400 L 101.5 400 L 98.5 397 L 92 395 Q 93.3 392 89.5 393 L 69.5 379 L 66 378 Q 67.1 375.3 64.5 376 L 43.5 357 L 42 357 L 39.5 353 Q 37.3 353.8 38 351.5 L 36 348 Q 33.3 349.1 34 346.5 L 29 340 L 26 338.5 L 24 334 Q 21.3 335.1 22 332.5 Q 15.7 326.6 13 318 Q 10 319.3 11 315.5 L 8 312.5 L 0 296.5 L 0 103.5 L 3 98.5 L 2.5 97 Q 5.1 97.8 4 94.5 L 7 91.5 L 8 87.5 L 13 81.5 L 16 74.5 L 21 69.5 L 22 66 Q 24.7 67.1 24 64.5 L 32 54 Q 34.7 55.1 34 52.5 L 38 47 L 42 44.5 L 43.5 42 L 46 40.5 Q 45.3 38.3 47.5 39 L 58 29.5 Q 57.3 27.3 59.5 28 L 77.5 14 L 79.5 14 L 90.5 6 L 102.5 0 Z M 160 58 L 157 59 L 157 95 L 156 96 L 157 98 Q 155 102 154 99 L 149 100 L 146 99 L 144 100 L 141 99 L 136 100 L 134 100 L 133 99 L 108 99 L 107 98 L 105 101 L 105 120 L 105 122 L 104 128 L 107 129 L 126 129 L 135 133 L 137 139 L 137 182 L 136 183 L 135 251 L 135 253 L 134 256 L 129 259 L 107 259 L 105 266 L 106 268 L 105 271 L 105 273 L 101 291 L 105 293 L 108 292 L 113 293 L 151 293 L 152 296 L 151 335 L 153 336 L 178 336 L 190 336 L 191 337 L 224 337 L 225 336 L 225 324 L 226 323 L 225 320 L 226 317 L 226 297 L 228 295 Q 233 297 235 294 L 238 295 L 244 293 L 246 294 Q 248 291 255 292 L 257 292 L 270 288 L 280 283 L 292 273 L 296 267 Q 295 263 298 264 L 302 253 L 303 236 L 304 234 L 304 232 Q 302 228 303 221 L 301 214 L 295 205 Q 296 202 294 203 L 292 200 L 285 194 L 274 189 Q 271 190 272 187 L 275 186 Q 277 187 276 184 L 280 182 Q 279 179 282 180 L 288 170 L 291 157 L 290 140 L 288 133 L 282 123 L 280 121 L 278 118 L 275 117 L 273 115 L 272 115 L 261 108 L 248 104 L 236 103 L 230 101 L 230 70 L 231 69 L 231 61 L 229 59 L 227 59 L 225 60 L 224 59 L 183 59 L 181 59 L 171 59 L 170 58 L 168 59 L 160 58 Z " /><path fill="rgb(0,0,0)" stroke="rgb(0,0,0)" stroke-width="1" opacity="1" d="M 202.5 131 L 213.5 133 L 226 143.5 L 230 153.5 L 230 163.5 L 229 168.5 L 223 178 Q 217.9 178.5 215.5 183 L 209.5 185 L 207.5 185 Q 201.3 186.8 199.5 184 L 197.5 185 L 186 180 Q 187.1 177.3 184.5 178 L 180 173.5 L 176 163.5 L 176 161.5 L 176 154.5 L 178 147.5 L 186.5 137 L 193.5 133 L 202.5 131 Z " /><path fill="rgb(0,0,0)" stroke="rgb(0,0,0)" stroke-width="1" opacity="1" d="M 202.5 202 Q 224.7 200.3 234 211.5 L 235.5 214 Q 237.8 213.3 237 215.5 L 239 217.5 L 243 228.5 L 244 237.5 L 242 246.5 L 238 254.5 L 232.5 260 L 226.5 264 L 217.5 268 L 201.5 268 L 193.5 265 L 185 258.5 L 178 247.5 Q 178.7 241.8 176 239.5 L 176 231.5 L 177 228.5 Q 176.3 224.3 179 223.5 L 179 221.5 Q 181.4 212.9 188.5 209 L 202.5 202 Z " /><path fill="rgb(0,0,0)" stroke="rgb(0,0,0)" stroke-width="1" opacity="0" d="M 0 0 L 98 0.5 Q 67.7 14.2 46 36.5 Q 48.3 37.8 45.5 39 L 44.5 38 L 34 48.5 L 29 54.5 L 29.5 56 Q 26.2 54.9 27 57.5 L 16 71.5 L 16.5 73 L 15 72.5 L 10 80.5 L 10.5 82 L 9 81.5 L 3 92.5 L 3.5 94 L 1 95.5 L 0.5 98 L 0 0 Z " /><path fill="rgb(0,0,0)" stroke="rgb(0,0,0)" stroke-width="1" opacity="0" d="M 300.5 0 L 400 0 L 400 99.5 L 399 99.5 L 395 92.5 L 395.5 91 L 394 90.5 L 394.5 89 L 392 87.5 L 391 85.5 L 391.5 84 L 390 83.5 Q 392.2 82.3 389.5 81 L 388 80.5 L 388 78.5 L 385.5 74 L 384 74.5 L 384 72.5 L 381.5 69 L 380 68.5 Q 382.8 66.8 378.5 65 L 377 64.5 L 378 63.5 L 375 60.5 L 374.5 59 L 373 59.5 L 374 58.5 L 370 54.5 L 367.5 51 Q 366.3 53.3 365 50.5 L 366 49.5 L 351.5 35 L 350 35.5 Q 352.3 34.3 349.5 33 Q 348.3 35.3 347 32.5 Q 349.3 31.3 346.5 30 L 343.5 28 Q 342.3 30.3 341 27.5 Q 343.3 26.2 340.5 25 L 337.5 23 L 336 23.5 Q 338.3 22.3 335.5 21 L 333.5 20 Q 332.3 22.3 331 19.5 L 331.5 18 L 329.5 17 L 328 17.5 L 328.5 16 L 322.5 12 L 321 12.5 L 319.5 10 L 317.5 9 L 316 9.5 L 316.5 8 L 311.5 5 L 310 5.5 Q 310.8 3.3 308.5 4 L 306 3.5 Q 306.9 0.5 302.5 2 L 300.5 0 Z " /><path fill="rgb(0,0,0)" stroke="rgb(0,0,0)" stroke-width="1" opacity="0" d="M 213.5 60 L 217 60.5 L 213 61.5 L 229 62 L 228 64.5 L 228 102.5 L 230 102.5 L 229.5 104 L 241.5 105 L 245.5 107 L 253.5 108 L 270 115 Q 268.9 117.7 271.5 117 L 280 124.5 L 284.5 132 L 286 131.5 L 285 133.5 L 286.5 137 L 288 136.5 L 287 139.5 L 288 140.5 L 288 161.5 Q 286.3 170.8 281 176.5 L 281.5 178 Q 280.3 175.8 279 178.5 L 276.5 182 L 274 183.5 L 274.5 185 L 272.5 185 L 271 185.5 L 271.5 187 L 269.5 186 L 268 190 L 270 189.5 L 269.5 188 L 270.5 191 L 272.5 190 L 273 192 L 282.5 196 L 284 195.5 Q 281.8 196.8 284.5 198 L 286.5 199 L 288 198.5 L 287 199.5 L 295 207.5 L 298.5 215 L 300 214.5 L 299 217.5 L 301 222.5 L 301 243.5 L 299 253.5 L 299.5 255 L 298 254.5 Q 294.4 268.4 284.5 276 Q 275.3 284.3 261.5 288 L 247.5 291 L 231 292.5 L 231.5 294 L 225.5 293 L 225.5 295 L 224 294.5 L 223 335 L 200.5 336 L 198.5 335 L 197 335.5 L 196.5 334 L 162.5 334 L 161.5 335 L 154 335 L 153.5 333 L 152 333.5 L 152.5 321 L 153.5 328 L 154 292.5 L 152.5 291 L 127.5 291 L 123.5 291 L 119 292 L 118.5 290 L 104 290 L 104 285.5 L 105 280.5 L 104.5 279 Q 107.5 279.9 106 275.5 Q 108.3 274.2 107 269.5 L 106.5 268 L 108 268.5 L 109 261.5 L 108.5 260 L 111.5 261 L 112.5 260 L 127.5 260 L 130.5 261 L 130.5 259 L 133.5 260 L 137 255.5 L 138 193.5 Q 135.7 192.2 137 187.5 L 138 187.5 L 138.5 190 L 139 136.5 L 137 136.5 L 138 134.5 L 135.5 131 L 134 131.5 Q 136.3 130.3 133.5 129 L 131.5 130 L 131.5 128 L 128.5 129 L 128.5 127 L 107 127 L 107 101 L 127.5 101 L 128.5 102 L 157.5 102 L 159 99.5 L 159 97.5 L 159 61 L 212.5 61 L 213.5 60 Z M 200 129 L 200 131 L 195 130 L 195 132 L 194 131 L 187 134 L 181 140 L 182 141 L 181 140 L 176 147 L 177 150 L 176 149 Q 172 154 174 165 L 176 164 L 175 166 Q 177 178 187 183 L 189 182 L 189 184 L 191 183 L 191 185 L 193 184 L 192 186 L 196 187 L 201 186 Q 205 185 207 187 L 215 186 L 222 182 Q 229 176 232 167 L 231 162 L 232 157 L 232 155 L 230 146 L 229 146 L 229 145 L 227 141 L 219 133 L 217 134 L 217 132 L 215 133 L 215 132 L 212 130 L 208 131 L 208 130 L 200 129 Z M 202 200 L 196 202 L 196 204 L 195 203 L 186 208 Q 179 213 176 222 L 177 225 L 176 224 Q 172 230 174 242 L 176 242 L 175 246 L 177 245 L 176 247 L 181 258 L 188 263 L 190 263 L 191 266 L 193 265 L 193 267 L 195 266 L 194 268 L 201 270 L 205 269 L 208 270 L 206 270 L 206 271 L 215 271 L 213 270 L 213 269 L 220 270 L 219 269 L 221 269 L 231 265 Q 235 263 232 262 L 234 262 L 243 251 L 246 240 Q 247 221 238 213 Q 233 206 225 202 L 222 203 L 222 202 L 219 200 Q 214 199 213 201 L 202 200 Z " /><path fill="rgb(0,0,0)" stroke="rgb(0,0,0)" stroke-width="1" opacity="0" d="M 399.5 300 L 400 400 L 301 399.5 L 309 395.5 L 309.5 394 L 311.5 394 L 315 392.5 L 314.5 391 L 316.5 392 L 316.5 390 Q 318 392.5 319.5 389 L 326 385.5 L 325.5 384 Q 327 386.5 328.5 383 L 343 372.5 Q 340.8 371.3 343.5 370 Q 345 372.5 346.5 369 Q 349.1 369.8 348 366.5 Q 349.8 362.3 351.5 365 L 365 351.5 Q 362.3 349.8 366.5 348 L 371 344.5 Q 368.8 343.3 371.5 342 Q 372.8 344.3 374 341.5 L 379 334.5 L 378.5 333 Q 379.8 335.3 381 332.5 L 382 330.5 L 381.5 329 L 383 329.5 L 384 327.5 L 383.5 326 Q 384.7 328.3 386 325.5 L 387 323.5 L 386.5 322 L 388 321.5 L 387.5 320 L 389 320.5 L 390 318.5 L 389.5 317 L 391 317.5 L 392 315.5 L 391.5 314 L 393 313.5 L 392.5 312 L 394 312.5 L 393 310.5 L 395 310 L 395 307.5 L 399.5 300 Z " /><path fill="rgb(0,0,0)" stroke="rgb(0,0,0)" stroke-width="1" opacity="0" d="M 0.5 301 L 4 306.5 L 3.5 308 L 6 309.5 L 5 311.5 L 7 311.5 L 7 313.5 L 8.5 317 L 10 316.5 L 9.5 318 L 11 318.5 Q 8.7 319.8 11.5 321 L 13 321.5 L 13 323.5 L 13.5 325 L 15 324.5 Q 12.5 326 16 327.5 L 18.5 332 L 20 331.5 Q 17.5 333 21 334.5 L 21.5 336 L 23 335.5 L 22 336.5 L 25 339.5 L 25.5 341 L 27 340.5 L 26 341.5 L 30 345.5 L 31.5 348 L 33 347.5 L 32 348.5 L 39 355.5 L 41 358.5 L 51.5 368 L 53 367.5 Q 50.2 369.3 54.5 371 L 74.5 386 L 76 385.5 L 77.5 388 L 79 387.5 L 78.5 389 L 85.5 393 L 87 392.5 L 87.5 394 L 89 393.5 L 88.5 395 L 90.5 394 L 92.5 397 L 96.5 399 Q 97.7 396.8 99 399.5 L 0 400 L 0.5 301 Z " /><path fill="rgb(8,4,6)" stroke="rgb(8,4,6)" stroke-width="1" opacity="0.8666666666666667" d="M 97.5 1 L 96.5 3 L 92.5 5 L 93.5 3 L 97.5 1 Z " /><path fill="rgb(8,4,6)" stroke="rgb(8,4,6)" stroke-width="1" opacity="0.8666666666666667" d="M 303.5 2 L 306 3.5 L 304.5 3 L 303.5 2 Z " /><path fill="rgb(8,4,6)" stroke="rgb(8,4,6)" stroke-width="1" opacity="0.8666666666666667" d="M 90.5 5 L 89.5 7 L 88 6.5 L 90.5 5 Z " /><path fill="rgb(8,4,6)" stroke="rgb(8,4,6)" stroke-width="1" opacity="0.8666666666666667" d="M 309.5 5 L 313 7.5 L 311.5 7 L 309.5 5 Z " /><path fill="rgb(8,4,6)" stroke="rgb(8,4,6)" stroke-width="1" opacity="0.8666666666666667" d="M 86.5 7 L 87 9 L 85 8.5 L 86.5 7 Z " /><path fill="rgb(8,4,6)" stroke="rgb(8,4,6)" stroke-width="1" opacity="0.8666666666666667" d="M 314.5 8 L 328 17.5 L 325.5 16 L 316.5 11 L 314.5 8 Z " /><path fill="rgb(8,4,6)" stroke="rgb(8,4,6)" stroke-width="1" opacity="0.8666666666666667" d="M 81.5 10 L 80.5 12 L 81.5 10 Z " /><path fill="rgb(8,4,6)" stroke="rgb(8,4,6)" stroke-width="1" opacity="0.8666666666666667" d="M 78.5 12 L 77.5 14 L 78.5 12 Z " /><path fill="rgb(8,4,6)" stroke="rgb(8,4,6)" stroke-width="1" opacity="0.8666666666666667" d="M 75.5 14 L 72.5 18 L 70.5 19 L 72.5 16 L 75.5 14 Z " /><path fill="rgb(8,4,6)" stroke="rgb(8,4,6)" stroke-width="1" opacity="0.8666666666666667" d="M 329.5 18 L 331.5 21 L 329.5 18 Z " /><path fill="rgb(8,4,6)" stroke="rgb(8,4,6)" stroke-width="1" opacity="0.8666666666666667" d="M 68.5 19 L 68 20.5 Q 68.8 23.1 65.5 22 L 58 28.5 L 57.5 30 L 57 28.5 L 68.5 19 Z " /><path fill="rgb(8,4,6)" stroke="rgb(8,4,6)" stroke-width="1" opacity="0.8666666666666667" d="M 333.5 21 L 335.5 24 L 333.5 21 Z " /><path fill="rgb(8,4,6)" stroke="rgb(8,4,6)" stroke-width="1" opacity="0.8666666666666667" d="M 337.5 24 L 340.5 28 L 337.5 24 Z " /><path fill="rgb(8,4,6)" stroke="rgb(8,4,6)" stroke-width="1" opacity="0.8666666666666667" d="M 342.5 29 L 349 34.5 L 347 35 L 344.5 31 L 342.5 29 Z " /><path fill="rgb(8,4,6)" stroke="rgb(8,4,6)" stroke-width="1" opacity="0.8666666666666667" d="M 53.5 31 L 54 33 L 49 36.5 Q 49.8 38.8 47.5 38 L 53.5 31 Z " /><path fill="rgb(8,4,6)" stroke="rgb(8,4,6)" stroke-width="1" opacity="0.8666666666666667" d="M 351.5 36 L 364.5 50 Q 362.3 50.8 363 48.5 L 360 47 Q 361.1 44.3 358.5 45 L 351.5 36 Z " /><path fill="rgb(8,4,6)" stroke="rgb(8,4,6)" stroke-width="1" opacity="0.8666666666666667" d="M 45.5 39 L 42 43.5 L 40.5 46 L 35 50.5 Q 35.8 52.8 33.5 52 L 31 53.5 L 45.5 39 Z " /><path fill="rgb(8,4,6)" stroke="rgb(8,4,6)" stroke-width="1" opacity="0.8666666666666667" d="M 366.5 52 L 382 70.5 L 380 71 L 372 58 Q 369.3 59.1 370 56.5 L 366.5 52 Z " /><path fill="rgb(8,4,6)" stroke="rgb(8,4,6)" stroke-width="1" opacity="0.8666666666666667" d="M 30.5 55 L 27 59.5 L 22.5 65 L 26 60.5 L 30.5 55 Z " /><path fill="rgb(8,4,6)" stroke="rgb(8,4,6)" stroke-width="1" opacity="0.8666666666666667" d="M 160.5 59 L 205 59.5 L 160.5 60 L 160.5 59 Z " /><path fill="rgb(8,4,6)" stroke="rgb(8,4,6)" stroke-width="1" opacity="0.8666666666666667" d="M 217.5 60 L 230 60.5 L 217.5 61 L 217.5 60 Z " /><path fill="rgb(8,4,6)" stroke="rgb(8,4,6)" stroke-width="1" opacity="0.8666666666666667" d="M 21.5 66 L 20 68.5 L 15 78 Q 12.3 76.9 13 79.5 L 1.5 98 L 2 96.5 Q 9.9 79.4 21.5 66 Z " /><path fill="rgb(8,4,6)" stroke="rgb(8,4,6)" stroke-width="1" opacity="0.8666666666666667" d="M 229.5 69 L 230 95.5 L 229 95.5 L 229.5 69 Z " /><path fill="rgb(8,4,6)" stroke="rgb(8,4,6)" stroke-width="1" opacity="0.8666666666666667" d="M 382.5 72 L 383.5 74 L 382.5 72 Z " /><path fill="rgb(8,4,6)" stroke="rgb(8,4,6)" stroke-width="1" opacity="0.8666666666666667" d="M 384.5 75 L 392 86.5 L 390 85.5 L 384.5 75 Z " /><path fill="rgb(8,4,6)" stroke="rgb(8,4,6)" stroke-width="1" opacity="0.8666666666666667" d="M 157.5 81 L 158 98.5 L 157 98.5 L 157.5 81 Z " /><path fill="rgb(8,4,6)" stroke="rgb(8,4,6)" stroke-width="1" opacity="0.8666666666666667" d="M 392.5 88 L 397 95.5 L 395 94.5 L 392.5 88 Z " /><path fill="rgb(8,4,6)" stroke="rgb(8,4,6)" stroke-width="1" opacity="0.8666666666666667" d="M 397.5 97 L 400 101.5 L 398 100.5 L 397.5 97 Z " /><path fill="rgb(8,4,6)" stroke="rgb(8,4,6)" stroke-width="1" opacity="0.8666666666666667" d="M 106 99 L 120 99.5 L 107.5 100 L 106 101.5 L 105.5 104 L 105 101.5 L 106 99 Z " /><path fill="rgb(8,4,6)" stroke="rgb(8,4,6)" stroke-width="1" opacity="0.8666666666666667" d="M 132.5 100 L 157 100.5 L 132.5 101 L 132.5 100 Z " /><path fill="rgb(8,4,6)" stroke="rgb(8,4,6)" stroke-width="1" opacity="0.8666666666666667" d="M 229.5 100 L 230 102 L 233 102.5 L 230.5 103 L 229.5 100 Z " /><path fill="rgb(8,4,6)" stroke="rgb(8,4,6)" stroke-width="1" opacity="0.8666666666666667" d="M 236.5 103 L 240 103.5 L 236.5 104 L 236.5 103 Z " /><path fill="rgb(8,4,6)" stroke="rgb(8,4,6)" stroke-width="1" opacity="0.8666666666666667" d="M 246.5 105 L 249 105.5 L 246.5 106 L 246.5 105 Z " /><path fill="rgb(8,4,6)" stroke="rgb(8,4,6)" stroke-width="1" opacity="0.8666666666666667" d="M 254.5 107 L 258 108.5 L 256.5 108 Q 253.5 108.5 254.5 107 Z " /><path fill="rgb(8,4,6)" stroke="rgb(8,4,6)" stroke-width="1" opacity="0.8666666666666667" d="M 105.5 108 L 106 127.5 L 105 127.5 L 105.5 108 Z " /><path fill="rgb(8,4,6)" stroke="rgb(8,4,6)" stroke-width="1" opacity="0.8666666666666667" d="M 259.5 108 L 263 110.5 L 261.5 110 L 259.5 108 Z " /><path fill="rgb(8,4,6)" stroke="rgb(8,4,6)" stroke-width="1" opacity="0.8666666666666667" d="M 264.5 111 L 269 113.5 L 267.5 113 Q 263.8 112.8 264.5 111 Z " /><path fill="rgb(8,4,6)" stroke="rgb(8,4,6)" stroke-width="1" opacity="0.8666666666666667" d="M 270.5 114 L 271.5 116 L 270.5 114 Z " /><path fill="rgb(8,4,6)" stroke="rgb(8,4,6)" stroke-width="1" opacity="0.8666666666666667" d="M 273.5 116 L 275.5 119 L 273.5 116 Z " /><path fill="rgb(8,4,6)" stroke="rgb(8,4,6)" stroke-width="1" opacity="0.8666666666666667" d="M 277.5 120 L 280 121.5 L 278.5 122 L 277.5 120 Z " /><path fill="rgb(8,4,6)" stroke="rgb(8,4,6)" stroke-width="1" opacity="0.8666666666666667" d="M 280.5 123 L 286 130.5 L 284 129.5 L 280.5 123 Z " /><path fill="rgb(8,4,6)" stroke="rgb(8,4,6)" stroke-width="1" opacity="0.8666666666666667" d="M 122.5 128 Q 133.4 127.6 137 134.5 L 138 140.5 L 137 140.5 L 137 137.5 L 132.5 131 Q 129.2 128.3 122.5 129 L 122.5 128 Z " /><path fill="rgb(8,4,6)" stroke="rgb(8,4,6)" stroke-width="1" opacity="0.8666666666666667" d="M 200.5 130 L 207 130.5 L 200.5 131 L 200.5 130 Z " /><path fill="rgb(8,4,6)" stroke="rgb(8,4,6)" stroke-width="1" opacity="0.8666666666666667" d="M 195.5 131 L 197 131.5 L 186.5 137 L 188.5 134 L 195.5 131 Z " /><path fill="rgb(8,4,6)" stroke="rgb(8,4,6)" stroke-width="1" opacity="0.8666666666666667" d="M 208.5 131 L 214 132.5 L 212.5 133 L 208.5 132 L 208.5 131 Z " /><path fill="rgb(8,4,6)" stroke="rgb(8,4,6)" stroke-width="1" opacity="0.8666666666666667" d="M 286.5 132 L 288 135.5 L 287 135.5 L 286.5 132 Z " /><path fill="rgb(8,4,6)" stroke="rgb(8,4,6)" stroke-width="1" opacity="0.8666666666666667" d="M 219.5 135 L 226.5 143 L 220 138 L 219.5 135 Z " /><path fill="rgb(8,4,6)" stroke="rgb(8,4,6)" stroke-width="1" opacity="0.8666666666666667" d="M 184.5 137 L 182.5 140 L 184.5 137 Z " /><path fill="rgb(8,4,6)" stroke="rgb(8,4,6)" stroke-width="1" opacity="0.8666666666666667" d="M 288.5 137 L 289 139.5 L 288 139.5 L 288.5 137 Z " /><path fill="rgb(8,4,6)" stroke="rgb(8,4,6)" stroke-width="1" opacity="0.8666666666666667" d="M 181.5 141 L 180 143.5 L 177.5 149 L 177 147.5 L 181.5 141 Z " /><path fill="rgb(8,4,6)" stroke="rgb(8,4,6)" stroke-width="1" opacity="0.8666666666666667" d="M 289.5 141 L 290 148.5 L 289 148.5 L 289.5 141 Z " /><path fill="rgb(8,4,6)" stroke="rgb(8,4,6)" stroke-width="1" opacity="0.8666666666666667" d="M 228.5 146 L 230 149.5 L 229 149.5 L 228.5 146 Z " /><path fill="rgb(8,4,6)" stroke="rgb(8,4,6)" stroke-width="1" opacity="0.8666666666666667" d="M 230.5 151 L 231 153.5 L 230 153.5 L 230.5 151 Z " /><path fill="rgb(8,4,6)" stroke="rgb(8,4,6)" stroke-width="1" opacity="0.8666666666666667" d="M 175.5 154 L 176 163.5 L 175 163.5 L 175.5 154 Z " /><path fill="rgb(8,4,6)" stroke="rgb(8,4,6)" stroke-width="1" opacity="0.8666666666666667" d="M 289.5 154 L 290 160.5 L 289 160.5 L 289.5 154 Z " /><path fill="rgb(8,4,6)" stroke="rgb(8,4,6)" stroke-width="1" opacity="0.8666666666666667" d="M 231.5 156 L 232 159.5 L 231 159.5 L 231.5 156 Z " /><path fill="rgb(8,4,6)" stroke="rgb(8,4,6)" stroke-width="1" opacity="0.8666666666666667" d="M 137.5 159 L 138 186.5 L 137 186.5 L 137.5 159 Z " /><path fill="rgb(8,4,6)" stroke="rgb(8,4,6)" stroke-width="1" opacity="0.8666666666666667" d="M 230.5 162 L 231 165.5 L 230 165.5 L 230.5 162 Z " /><path fill="rgb(8,4,6)" stroke="rgb(8,4,6)" stroke-width="1" opacity="0.8666666666666667" d="M 288.5 162 L 289 164.5 L 288 164.5 L 288.5 162 Z " /><path fill="rgb(8,4,6)" stroke="rgb(8,4,6)" stroke-width="1" opacity="0.8666666666666667" d="M 287.5 166 L 288 168.5 L 285 176 Q 282.3 174.9 283 177.5 L 275 184.5 Q 284 178 287.5 166 Z " /><path fill="rgb(8,4,6)" stroke="rgb(8,4,6)" stroke-width="1" opacity="0.8666666666666667" d="M 228.5 170 L 228 171.5 L 227.5 173 L 227 171.5 L 228.5 170 Z " /><path fill="rgb(8,4,6)" stroke="rgb(8,4,6)" stroke-width="1" opacity="0.8666666666666667" d="M 179.5 173 L 180.5 175 L 179.5 173 Z " /><path fill="rgb(8,4,6)" stroke="rgb(8,4,6)" stroke-width="1" opacity="0.8666666666666667" d="M 225.5 175 L 219.5 182 L 225.5 175 Z " /><path fill="rgb(8,4,6)" stroke="rgb(8,4,6)" stroke-width="1" opacity="0.8666666666666667" d="M 181.5 176 L 184.5 180 L 181.5 176 Z " /><path fill="rgb(8,4,6)" stroke="rgb(8,4,6)" stroke-width="1" opacity="0.8666666666666667" d="M 189.5 182 L 192 183.5 L 190.5 183 L 189.5 182 Z " /><path fill="rgb(8,4,6)" stroke="rgb(8,4,6)" stroke-width="1" opacity="0.8666666666666667" d="M 211.5 184 L 214 184.5 L 207.5 186 L 207.5 185 L 211.5 184 Z " /><path fill="rgb(8,4,6)" stroke="rgb(8,4,6)" stroke-width="1" opacity="0.8666666666666667" d="M 196.5 185 L 200 185.5 L 196.5 186 L 196.5 185 Z " /><path fill="rgb(8,4,6)" stroke="rgb(8,4,6)" stroke-width="1" opacity="0.8666666666666667" d="M 273.5 185 L 271.5 189 L 275 190.5 L 273.5 191 L 270 188.5 Q 269.3 186.3 271.5 187 L 273.5 185 Z " /><path fill="rgb(8,4,6)" stroke="rgb(8,4,6)" stroke-width="1" opacity="0.8666666666666667" d="M 276.5 191 Q 283.9 192.1 287 197.5 L 283.5 195 L 276.5 192 L 276.5 191 Z " /><path fill="rgb(8,4,6)" stroke="rgb(8,4,6)" stroke-width="1" opacity="0.8666666666666667" d="M 288.5 198 Q 295 202 298 209.5 L 296 208.5 L 288.5 198 Z " /><path fill="rgb(8,4,6)" stroke="rgb(8,4,6)" stroke-width="1" opacity="0.8666666666666667" d="M 201.5 201 L 206 201.5 L 196.5 204 L 196.5 203 L 201.5 201 Z " /><path fill="rgb(8,4,6)" stroke="rgb(8,4,6)" stroke-width="1" opacity="0.8666666666666667" d="M 214.5 201 L 218 201.5 L 214.5 202 L 214.5 201 Z " /><path fill="rgb(8,4,6)" stroke="rgb(8,4,6)" stroke-width="1" opacity="0.8666666666666667" d="M 219.5 202 L 224 203.5 L 221.5 204 L 219.5 202 Z " /><path fill="rgb(8,4,6)" stroke="rgb(8,4,6)" stroke-width="1" opacity="0.8666666666666667" d="M 225.5 204 L 229 206.5 L 227.5 206 Q 223.5 207 225.5 204 Z " /><path fill="rgb(8,4,6)" stroke="rgb(8,4,6)" stroke-width="1" opacity="0.8666666666666667" d="M 191.5 205 L 193 205.5 L 183 213.5 L 180.5 217 L 181 215.5 L 188.5 207 L 191.5 205 Z " /><path fill="rgb(8,4,6)" stroke="rgb(8,4,6)" stroke-width="1" opacity="0.8666666666666667" d="M 136.5 207 L 137 233.5 L 136 233.5 L 136.5 207 Z " /><path fill="rgb(8,4,6)" stroke="rgb(8,4,6)" stroke-width="1" opacity="0.8666666666666667" d="M 230.5 207 L 235 210 L 240 217.5 L 238 216.5 L 230.5 207 Z " /><path fill="rgb(8,4,6)" stroke="rgb(8,4,6)" stroke-width="1" opacity="0.8666666666666667" d="M 301.5 218 L 302 221.5 L 301 221.5 L 301.5 218 Z " /><path fill="rgb(8,4,6)" stroke="rgb(8,4,6)" stroke-width="1" opacity="0.8666666666666667" d="M 178.5 220 L 179 221.5 L 176.5 227 L 176 225.5 L 178.5 220 Z " /><path fill="rgb(8,4,6)" stroke="rgb(8,4,6)" stroke-width="1" opacity="0.8666666666666667" d="M 241.5 223 Q 243.8 222.3 243 224.5 L 241.5 223 Z " /><path fill="rgb(8,4,6)" stroke="rgb(8,4,6)" stroke-width="1" opacity="0.8666666666666667" d="M 302.5 224 L 303 242.5 L 302 242.5 L 302.5 224 Z " /><path fill="rgb(8,4,6)" stroke="rgb(8,4,6)" stroke-width="1" opacity="0.8666666666666667" d="M 243.5 226 L 244 228.5 L 243 228.5 L 243.5 226 Z " /><path fill="rgb(8,4,6)" stroke="rgb(8,4,6)" stroke-width="1" opacity="0.8666666666666667" d="M 175.5 229 L 176 240.5 L 175 240.5 L 175.5 229 Z " /><path fill="rgb(8,4,6)" stroke="rgb(8,4,6)" stroke-width="1" opacity="0.8666666666666667" d="M 243.5 241 L 244 243.5 L 243 243.5 L 243.5 241 Z " /><path fill="rgb(8,4,6)" stroke="rgb(8,4,6)" stroke-width="1" opacity="0.8666666666666667" d="M 301.5 246 L 302 249.5 L 301 249.5 L 301.5 246 Z " /><path fill="rgb(8,4,6)" stroke="rgb(8,4,6)" stroke-width="1" opacity="0.8666666666666667" d="M 178.5 249 L 180 251.5 L 178 250.5 L 178.5 249 Z " /><path fill="rgb(8,4,6)" stroke="rgb(8,4,6)" stroke-width="1" opacity="0.8666666666666667" d="M 135.5 250 L 136 254.5 L 132.5 259 L 131 258.5 L 134 256.5 L 135.5 250 Z " /><path fill="rgb(8,4,6)" stroke="rgb(8,4,6)" stroke-width="1" opacity="0.8666666666666667" d="M 300.5 251 L 301 253.5 L 300 253.5 L 300.5 251 Z " /><path fill="rgb(8,4,6)" stroke="rgb(8,4,6)" stroke-width="1" opacity="0.8666666666666667" d="M 180.5 253 L 189 262.5 L 181 255.5 L 180.5 253 Z " /><path fill="rgb(8,4,6)" stroke="rgb(8,4,6)" stroke-width="1" opacity="0.8666666666666667" d="M 238.5 254 L 237 256.5 L 233.5 261 L 234 259.5 L 238.5 254 Z " /><path fill="rgb(8,4,6)" stroke="rgb(8,4,6)" stroke-width="1" opacity="0.8666666666666667" d="M 299.5 255 L 300 256.5 L 298.5 259 L 298 257.5 L 299.5 255 Z " /><path fill="rgb(8,4,6)" stroke="rgb(8,4,6)" stroke-width="1" opacity="0.8666666666666667" d="M 129.5 258 L 130 260 L 125 259.5 L 129.5 258 Z " /><path fill="rgb(8,4,6)" stroke="rgb(8,4,6)" stroke-width="1" opacity="0.8666666666666667" d="M 108.5 259 L 114 259.5 L 108 260 L 107.5 263 L 107 260.5 L 108.5 259 Z " /><path fill="rgb(8,4,6)" stroke="rgb(8,4,6)" stroke-width="1" opacity="0.8666666666666667" d="M 190.5 262 L 192 264.5 L 190 263.5 L 190.5 262 Z " /><path fill="rgb(8,4,6)" stroke="rgb(8,4,6)" stroke-width="1" opacity="0.8666666666666667" d="M 230.5 262 L 229.5 264 L 230.5 262 Z " /><path fill="rgb(8,4,6)" stroke="rgb(8,4,6)" stroke-width="1" opacity="0.8666666666666667" d="M 227.5 264 L 226.5 266 L 220.5 268 L 220.5 267 L 227.5 264 Z " /><path fill="rgb(8,4,6)" stroke="rgb(8,4,6)" stroke-width="1" opacity="0.8666666666666667" d="M 106.5 265 L 107 267.5 L 106 267.5 L 106.5 265 Z " /><path fill="rgb(8,4,6)" stroke="rgb(8,4,6)" stroke-width="1" opacity="0.8666666666666667" d="M 294.5 266 L 293.5 268 L 294.5 266 Z " /><path fill="rgb(8,4,6)" stroke="rgb(8,4,6)" stroke-width="1" opacity="0.8666666666666667" d="M 197.5 267 L 203 268.5 L 200.5 269 L 197.5 268 L 197.5 267 Z " /><path fill="rgb(8,4,6)" stroke="rgb(8,4,6)" stroke-width="1" opacity="0.8666666666666667" d="M 216.5 268 L 219 268.5 L 216.5 269 L 216.5 268 Z " /><path fill="rgb(8,4,6)" stroke="rgb(8,4,6)" stroke-width="1" opacity="0.8666666666666667" d="M 208.5 269 L 212 269.5 L 208.5 270 L 208.5 269 Z " /><path fill="rgb(8,4,6)" stroke="rgb(8,4,6)" stroke-width="1" opacity="0.8666666666666667" d="M 292.5 269 L 289.5 273 L 292.5 269 Z " /><path fill="rgb(8,4,6)" stroke="rgb(8,4,6)" stroke-width="1" opacity="0.8666666666666667" d="M 105.5 270 L 106 274.5 L 104.5 279 L 104 275.5 L 105.5 270 Z " /><path fill="rgb(8,4,6)" stroke="rgb(8,4,6)" stroke-width="1" opacity="0.8666666666666667" d="M 285.5 276 L 287 276.5 L 279.5 282 L 280.5 280 L 285.5 276 Z " /><path fill="rgb(8,4,6)" stroke="rgb(8,4,6)" stroke-width="1" opacity="0.8666666666666667" d="M 103.5 280 L 104 283.5 L 103 283.5 L 103.5 280 Z " /><path fill="rgb(8,4,6)" stroke="rgb(8,4,6)" stroke-width="1" opacity="0.8666666666666667" d="M 102.5 286 L 103 291 L 119 291.5 L 102 292 L 102.5 286 Z " /><path fill="rgb(8,4,6)" stroke="rgb(8,4,6)" stroke-width="1" opacity="0.8666666666666667" d="M 259.5 289 L 262 289.5 L 259.5 290 L 259.5 289 Z " /><path fill="rgb(8,4,6)" stroke="rgb(8,4,6)" stroke-width="1" opacity="0.8666666666666667" d="M 254.5 290 L 257 290.5 L 254.5 291 L 254.5 290 Z " /><path fill="rgb(8,4,6)" stroke="rgb(8,4,6)" stroke-width="1" opacity="0.8666666666666667" d="M 250.5 291 L 253 291.5 L 250.5 292 L 250.5 291 Z " /><path fill="rgb(8,4,6)" stroke="rgb(8,4,6)" stroke-width="1" opacity="0.8666666666666667" d="M 141.5 292 L 151.5 292 L 153 293.5 L 152.5 295 L 152 293 L 141.5 293 L 141.5 292 Z " /><path fill="rgb(8,4,6)" stroke="rgb(8,4,6)" stroke-width="1" opacity="0.8666666666666667" d="M 242.5 292 L 247 292.5 L 242.5 293 L 242.5 292 Z " /><path fill="rgb(8,4,6)" stroke="rgb(8,4,6)" stroke-width="1" opacity="0.8666666666666667" d="M 232.5 293 L 240 293.5 L 232.5 294 L 232.5 293 Z " /><path fill="rgb(8,4,6)" stroke="rgb(8,4,6)" stroke-width="1" opacity="0.8666666666666667" d="M 226.5 294 L 230 294.5 L 226 295 L 225.5 298 L 225 295.5 L 226.5 294 Z " /><path fill="rgb(8,4,6)" stroke="rgb(8,4,6)" stroke-width="1" opacity="0.8666666666666667" d="M 0.5 299 L 2 301.5 L 0 300.5 L 0.5 299 Z " /><path fill="rgb(8,4,6)" stroke="rgb(8,4,6)" stroke-width="1" opacity="0.8666666666666667" d="M 399.5 299 L 399 300.5 L 397.5 303 L 398 301.5 L 399.5 299 Z " /><path fill="rgb(8,4,6)" stroke="rgb(8,4,6)" stroke-width="1" opacity="0.8666666666666667" d="M 152.5 300 L 153 320.5 L 152 320.5 L 152.5 300 Z " /><path fill="rgb(8,4,6)" stroke="rgb(8,4,6)" stroke-width="1" opacity="0.8666666666666667" d="M 396.5 304 L 396 305.5 L 395.5 307 L 395 305.5 L 396.5 304 Z " /><path fill="rgb(8,4,6)" stroke="rgb(8,4,6)" stroke-width="1" opacity="0.8666666666666667" d="M 4.5 307 L 5.5 309 L 4.5 307 Z " /><path fill="rgb(8,4,6)" stroke="rgb(8,4,6)" stroke-width="1" opacity="0.8666666666666667" d="M 394.5 308 L 393.5 310 L 394.5 308 Z " /><path fill="rgb(8,4,6)" stroke="rgb(8,4,6)" stroke-width="1" opacity="0.8666666666666667" d="M 7.5 312 L 10 315.5 L 8 314.5 L 7.5 312 Z " /><path fill="rgb(8,4,6)" stroke="rgb(8,4,6)" stroke-width="1" opacity="0.8666666666666667" d="M 224.5 313 L 225 335.5 L 223.5 337 L 213.5 337 L 213.5 336 L 224 336 L 224.5 313 Z " /><path fill="rgb(8,4,6)" stroke="rgb(8,4,6)" stroke-width="1" opacity="0.8666666666666667" d="M 391.5 313 L 391 314.5 L 389.5 317 L 390 315.5 L 391.5 313 Z " /><path fill="rgb(8,4,6)" stroke="rgb(8,4,6)" stroke-width="1" opacity="0.8666666666666667" d="M 10.5 317 L 15 323.5 L 13 322.5 L 10.5 317 Z " /><path fill="rgb(8,4,6)" stroke="rgb(8,4,6)" stroke-width="1" opacity="0.8666666666666667" d="M 388.5 318 L 387.5 320 L 388.5 318 Z " /><path fill="rgb(8,4,6)" stroke="rgb(8,4,6)" stroke-width="1" opacity="0.8666666666666667" d="M 386.5 321 L 386 322.5 L 383.5 326 L 385 323.5 L 386.5 321 Z " /><path fill="rgb(8,4,6)" stroke="rgb(8,4,6)" stroke-width="1" opacity="0.8666666666666667" d="M 15.5 325 L 23 334.5 L 20 332.5 L 15.5 325 Z " /><path fill="rgb(8,4,6)" stroke="rgb(8,4,6)" stroke-width="1" opacity="0.8666666666666667" d="M 382.5 327 L 381.5 329 L 382.5 327 Z " /><path fill="rgb(8,4,6)" stroke="rgb(8,4,6)" stroke-width="1" opacity="0.8666666666666667" d="M 380.5 330 L 378.5 333 L 380.5 330 Z " /><path fill="rgb(8,4,6)" stroke="rgb(8,4,6)" stroke-width="1" opacity="0.8666666666666667" d="M 377.5 334 L 376 336.5 L 371.5 342 L 372 340.5 Q 371.3 338.3 373.5 339 L 377.5 334 Z " /><path fill="rgb(8,4,6)" stroke="rgb(8,4,6)" stroke-width="1" opacity="0.8666666666666667" d="M 161.5 335 L 197 335.5 L 161.5 336 L 161.5 335 Z " /><path fill="rgb(8,4,6)" stroke="rgb(8,4,6)" stroke-width="1" opacity="0.8666666666666667" d="M 23.5 336 L 26.5 340 L 23.5 336 Z " /><path fill="rgb(8,4,6)" stroke="rgb(8,4,6)" stroke-width="1" opacity="0.8666666666666667" d="M 27.5 341 L 31.5 346 L 27.5 341 Z " /><path fill="rgb(8,4,6)" stroke="rgb(8,4,6)" stroke-width="1" opacity="0.8666666666666667" d="M 369.5 344 L 364 350.5 L 351.5 364 L 352 362.5 Q 351.3 360.3 353.5 361 L 369.5 344 Z " /><path fill="rgb(8,4,6)" stroke="rgb(8,4,6)" stroke-width="1" opacity="0.8666666666666667" d="M 33.5 348 L 48.5 363 L 50 363 L 52 366.5 L 33.5 348 Z " /><path fill="rgb(8,4,6)" stroke="rgb(8,4,6)" stroke-width="1" opacity="0.8666666666666667" d="M 349.5 364 L 344.5 370 L 349.5 364 Z " /><path fill="rgb(8,4,6)" stroke="rgb(8,4,6)" stroke-width="1" opacity="0.8666666666666667" d="M 54.5 368 L 58 370 L 59 372.5 L 54.5 368 Z " /><path fill="rgb(8,4,6)" stroke="rgb(8,4,6)" stroke-width="1" opacity="0.8666666666666667" d="M 340 371 L 342 371.5 L 337 375.5 L 340 371 Z " /><path fill="rgb(8,4,6)" stroke="rgb(8,4,6)" stroke-width="1" opacity="0.8666666666666667" d="M 60.5 373 L 64.5 378 L 60.5 373 Z " /><path fill="rgb(8,4,6)" stroke="rgb(8,4,6)" stroke-width="1" opacity="0.8666666666666667" d="M 335.5 376 L 333.5 379 L 335.5 376 Z " /><path fill="rgb(8,4,6)" stroke="rgb(8,4,6)" stroke-width="1" opacity="0.8666666666666667" d="M 66.5 378 L 67.5 380 L 66.5 378 Z " /><path fill="rgb(8,4,6)" stroke="rgb(8,4,6)" stroke-width="1" opacity="0.8666666666666667" d="M 69.5 380 L 75 384.5 L 72.5 383 L 69.5 380 Z " /><path fill="rgb(8,4,6)" stroke="rgb(8,4,6)" stroke-width="1" opacity="0.8666666666666667" d="M 330.5 380 L 329.5 382 L 330.5 380 Z " /><path fill="rgb(8,4,6)" stroke="rgb(8,4,6)" stroke-width="1" opacity="0.8666666666666667" d="M 327.5 382 L 326.5 384 L 327.5 382 Z " /><path fill="rgb(8,4,6)" stroke="rgb(8,4,6)" stroke-width="1" opacity="0.8666666666666667" d="M 324.5 384 L 322.5 387 L 320.5 388 L 321.5 386 L 324.5 384 Z " /><path fill="rgb(8,4,6)" stroke="rgb(8,4,6)" stroke-width="1" opacity="0.8666666666666667" d="M 76.5 385 L 77.5 387 L 76.5 385 Z " /><path fill="rgb(8,4,6)" stroke="rgb(8,4,6)" stroke-width="1" opacity="0.8666666666666667" d="M 79.5 387 L 83 389.5 L 81.5 389 L 79.5 387 Z " /><path fill="rgb(8,4,6)" stroke="rgb(8,4,6)" stroke-width="1" opacity="0.8666666666666667" d="M 318.5 388 L 317.5 390 L 318.5 388 Z " /><path fill="rgb(8,4,6)" stroke="rgb(8,4,6)" stroke-width="1" opacity="0.8666666666666667" d="M 84.5 390 L 90 393.5 L 88.5 393 Q 84.5 392.5 84.5 390 Z " /><path fill="rgb(8,4,6)" stroke="rgb(8,4,6)" stroke-width="1" opacity="0.8666666666666667" d="M 91.5 394 L 92.5 396 L 91.5 394 Z " /><path fill="rgb(8,4,6)" stroke="rgb(8,4,6)" stroke-width="1" opacity="0.8666666666666667" d="M 308.5 394 L 307.5 396 L 308.5 394 Z " /><path fill="rgb(8,4,6)" stroke="rgb(8,4,6)" stroke-width="1" opacity="0.8666666666666667" d="M 304.5 396 L 306 396.5 L 301.5 399 L 302.5 397 L 304.5 396 Z " /><path fill="rgb(8,4,6)" stroke="rgb(8,4,6)" stroke-width="1" opacity="0.8666666666666667" d="M 98.5 398 L 101 399.5 L 99.5 400 L 98.5 398 Z " /></svg>