<?xml version="1.0" encoding="UTF-8"?>
<!DOCTYPE svg PUBLIC "-//W3C//DTD SVG 1.1//EN" "http://www.w3.org/Graphics/SVG/1.1/DTD/svg11.dtd">
<svg xmlns="http://www.w3.org/2000/svg" version="1.1" width="484px" height="515px" style="shape-rendering:geometricPrecision; text-rendering:geometricPrecision; image-rendering:optimizeQuality; fill-rule:evenodd; clip-rule:evenodd" xmlns:xlink="http://www.w3.org/1999/xlink">
<g><path style="opacity:0.92" fill="#161616" d="M 130.5,93.5 C 131.78,94.9313 133.447,95.5979 135.5,95.5C 142.893,97.298 150.227,99.298 157.5,101.5C 162.887,105.833 162.22,106.5 155.5,103.5C 153.613,105.133 152.113,104.8 151,102.5C 150.822,107.016 152.489,108.016 156,105.5C 157.559,106.029 159.059,106.696 160.5,107.5C 162.029,106.237 163.695,105.237 165.5,104.5C 166.5,104.5 167.5,104.5 168.5,104.5C 169.183,106.176 170.517,106.843 172.5,106.5C 174.001,107.752 175.668,108.752 177.5,109.5C 177.973,110.906 178.973,111.573 180.5,111.5C 183.167,113.5 185.5,115.833 187.5,118.5C 187.427,120.027 188.094,121.027 189.5,121.5C 189.427,123.027 190.094,124.027 191.5,124.5C 191.783,125.289 192.283,125.956 193,126.5C 198.791,124.879 202.291,121.212 203.5,115.5C 205.773,115.043 207.106,113.71 207.5,111.5C 212.634,106.031 218.967,102.531 226.5,101C 238.169,99.0552 249.836,99.0552 261.5,101C 264.104,101.39 266.438,102.224 268.5,103.5C 269.911,105.539 271.911,106.539 274.5,106.5C 275.872,107.512 277.205,108.512 278.5,109.5C 279.5,111.167 280.833,112.5 282.5,113.5C 284.771,115.612 286.104,118.279 286.5,121.5C 286.821,123.048 287.821,123.715 289.5,123.5C 291.698,124.014 293.698,125.014 295.5,126.5C 297.771,122.388 300.271,118.388 303,114.5C 307.167,111.667 311.333,108.833 315.5,106C 346.109,96.518 376.776,87.3514 407.5,78.5C 408.72,78.8869 409.387,79.7202 409.5,81C 407.953,90.9063 403.287,99.4063 395.5,106.5C 393.754,105.782 393.088,104.782 393.5,103.5C 391.45,104.077 390.45,105.41 390.5,107.5C 389.178,107.33 388.011,107.663 387,108.5C 386.805,107.181 386.972,105.847 387.5,104.5C 388.167,103.167 389.167,102.167 390.5,101.5C 393.42,99.3375 395.087,96.3375 395.5,92.5C 395.167,91.1667 394.833,91.1667 394.5,92.5C 368.599,99.7964 342.932,107.63 317.5,116C 314.689,118.157 312.189,120.657 310,123.5C 300.647,139.362 291.481,155.362 282.5,171.5C 280.443,173.043 280.443,174.043 282.5,174.5C 287.608,174.867 292.608,175.867 297.5,177.5C 298.442,177.392 299.275,177.059 300,176.5C 300.941,174.273 302.108,172.273 303.5,170.5C 305.104,169.713 305.771,168.38 305.5,166.5C 307.848,160.983 310.514,155.65 313.5,150.5C 314.167,150.167 314.833,149.833 315.5,149.5C 317.61,150.95 318.943,152.95 319.5,155.5C 318.921,158.331 317.588,160.664 315.5,162.5C 314.733,163.172 314.066,164.005 313.5,165C 315.066,165.765 316.399,165.598 317.5,164.5C 318.833,164.5 320.167,164.5 321.5,164.5C 323.857,164.337 326.19,164.503 328.5,165C 326.285,165.17 324.285,165.837 322.5,167C 325.601,167.638 328.268,168.805 330.5,170.5C 324.559,171.634 318.559,172.301 312.5,172.5C 310.821,172.285 309.821,172.952 309.5,174.5C 309.586,175.496 309.252,176.329 308.5,177C 317.058,177.351 325.392,176.184 333.5,173.5C 338.444,175.077 338.777,177.411 334.5,180.5C 335.05,182.657 335.717,184.657 336.5,186.5C 337.828,194.902 337.828,203.402 336.5,212C 343.937,220.584 346.271,230.418 343.5,241.5C 342.069,242.78 341.402,244.447 341.5,246.5C 341.196,247.15 340.863,247.817 340.5,248.5C 346.292,257.767 347.958,267.767 345.5,278.5C 343.787,279.635 343.12,281.302 343.5,283.5C 343.389,284.117 343.056,284.617 342.5,285C 344.053,287.655 345.22,290.488 346,293.5C 346.667,299.5 346.667,305.5 346,311.5C 344.974,315.722 342.807,319.222 339.5,322C 343.428,325.688 345.928,330.188 347,335.5C 351.162,353.521 344.662,365.521 327.5,371.5C 326.307,381.258 321.64,388.592 313.5,393.5C 312.653,392.034 311.32,391.2 309.5,391C 309.833,390.667 310.167,390.333 310.5,390C 309.177,389.184 308.511,388.017 308.5,386.5C 316.913,380.084 319.413,371.75 316,361.5C 314.011,355.806 310.178,352.973 304.5,353C 300.197,355.253 299.53,358.253 302.5,362C 304.251,361.691 305.918,361.525 307.5,361.5C 309.176,362.183 309.843,363.517 309.5,365.5C 306.752,368.583 303.418,369.25 299.5,367.5C 298.781,365.683 297.781,365.016 296.5,365.5C 297.443,370.1 297.777,374.767 297.5,379.5C 297.095,382.715 296.095,385.715 294.5,388.5C 293.124,388.253 292.29,386.919 292,384.5C 291.329,385.252 290.496,385.586 289.5,385.5C 292.709,377.084 292.043,369.084 287.5,361.5C 280.124,356.465 274.457,357.965 270.5,366C 271.692,368.355 273.359,370.188 275.5,371.5C 276.097,372.139 276.93,372.472 278,372.5C 279.607,371.926 281.107,371.26 282.5,370.5C 282.5,371.5 282.5,372.5 282.5,373.5C 281.167,374.167 280.167,375.167 279.5,376.5C 274.928,379.261 270.428,378.928 266,375.5C 262.885,367.877 263.385,360.543 267.5,353.5C 269.217,350.155 269.884,346.489 269.5,342.5C 268.202,334.969 265.535,327.969 261.5,321.5C 262.29,320.391 262.79,319.058 263,317.5C 263.368,318.91 264.201,319.91 265.5,320.5C 266.696,320.154 266.696,319.654 265.5,319C 266.094,318.536 266.761,318.369 267.5,318.5C 272.558,318.731 274.558,316.064 273.5,310.5C 273.389,309.883 273.056,309.383 272.5,309C 274.041,307.629 275.375,306.129 276.5,304.5C 276.833,304.5 277.167,304.5 277.5,304.5C 278.579,306.543 280.246,307.876 282.5,308.5C 284.816,309.806 287.15,311.139 289.5,312.5C 289.5,314.5 290.5,315.5 292.5,315.5C 294.887,316.313 297.22,316.646 299.5,316.5C 301.698,316.88 303.365,316.213 304.5,314.5C 307.398,313.277 309.731,311.277 311.5,308.5C 313.382,307.779 313.715,306.779 312.5,305.5C 312.5,304.833 312.5,304.167 312.5,303.5C 313.678,301.662 313.345,299.995 311.5,298.5C 310.18,296.537 308.846,294.537 307.5,292.5C 307.217,291.711 306.717,291.044 306,290.5C 305.503,293.146 305.336,295.813 305.5,298.5C 303.982,303.248 300.982,304.581 296.5,302.5C 296.027,301.094 295.027,300.427 293.5,300.5C 292.2,293.931 289.2,288.264 284.5,283.5C 284.573,281.973 283.906,280.973 282.5,280.5C 280.973,280.573 279.973,279.906 279.5,278.5C 278.71,277.599 277.71,276.932 276.5,276.5C 270.227,274.2 263.894,274.033 257.5,276C 256.837,277.518 255.837,278.685 254.5,279.5C 253.847,278.193 253.18,276.86 252.5,275.5C 253.535,273.872 253.535,272.205 252.5,270.5C 253.384,266.23 255.717,264.897 259.5,266.5C 259.539,267.583 259.873,268.583 260.5,269.5C 262.299,270.788 263.965,270.788 265.5,269.5C 267.179,269.715 268.179,269.048 268.5,267.5C 267.375,258.348 262.709,255.681 254.5,259.5C 253.167,259.5 252.5,258.833 252.5,257.5C 255.906,247.882 254.906,238.882 249.5,230.5C 250.949,228.836 252.949,228.002 255.5,228C 254.663,226.989 254.33,225.822 254.5,224.5C 256.911,224.137 258.411,225.137 259,227.5C 260.067,225.717 261.567,225.217 263.5,226C 264.833,227 264.833,228 263.5,229C 264.094,229.464 264.761,229.631 265.5,229.5C 268.748,228.86 272.082,229.027 275.5,230C 278.571,231.296 281.571,232.462 284.5,233.5C 285.344,235.759 287.011,236.759 289.5,236.5C 292.334,238.649 292.001,239.649 288.5,239.5C 288.5,238.833 288.167,238.5 287.5,238.5C 280.181,237.645 272.848,237.479 265.5,238C 270.102,239.122 274.768,239.622 279.5,239.5C 282.287,240.477 285.287,240.81 288.5,240.5C 288.306,241.968 286.972,242.635 284.5,242.5C 282.102,242.259 280.102,242.926 278.5,244.5C 276.307,246.521 273.807,248.188 271,249.5C 268.105,248.591 265.272,247.591 262.5,246.5C 262.179,244.952 261.179,244.285 259.5,244.5C 259.292,248.085 260.625,250.751 263.5,252.5C 266.852,252.53 269.518,253.863 271.5,256.5C 271.427,258.027 272.094,259.027 273.5,259.5C 275.071,264.39 278.571,266.723 284,266.5C 287.059,266.056 289.559,264.723 291.5,262.5C 293.25,261.341 294.25,259.674 294.5,257.5C 294.56,256.957 294.893,256.624 295.5,256.5C 296.814,257.313 297.981,258.313 299,259.5C 299.513,258.473 300.013,257.473 300.5,256.5C 302.977,254.584 303.977,251.917 303.5,248.5C 304.598,247.399 304.765,246.066 304,244.5C 303.283,245.044 302.783,245.711 302.5,246.5C 300.481,247.933 298.314,249.267 296,250.5C 295.308,249.975 294.808,249.308 294.5,248.5C 295.763,246.971 296.763,245.305 297.5,243.5C 298.401,242.71 299.068,241.71 299.5,240.5C 301.671,232.597 302.005,224.597 300.5,216.5C 300.833,215.167 301.167,213.833 301.5,212.5C 302.107,212.624 302.44,212.957 302.5,213.5C 302.783,214.289 303.283,214.956 304,215.5C 304.765,213.934 304.598,212.601 303.5,211.5C 297.933,208.882 292.266,206.549 286.5,204.5C 285.737,203.732 284.737,203.232 283.5,203C 284,202.5 284.5,202 285,201.5C 286.388,202.554 287.888,202.72 289.5,202C 286.553,201.888 285.22,200.388 285.5,197.5C 284.5,197.5 283.5,197.5 282.5,197.5C 282.64,199.124 281.973,200.29 280.5,201C 280.833,201.333 281.167,201.667 281.5,202C 280.552,202.483 279.552,202.649 278.5,202.5C 273.036,202.456 267.369,202.622 261.5,203C 257.265,207.342 252.931,211.508 248.5,215.5C 247.5,215.833 246.833,216.5 246.5,217.5C 246.5,218.167 246.167,218.5 245.5,218.5C 244.5,218.5 243.5,218.5 242.5,218.5C 242.5,216.5 241.5,215.5 239.5,215.5C 235.731,211.229 231.731,207.062 227.5,203C 214.673,201.713 202.34,203.547 190.5,208.5C 188.368,208.554 187.035,209.554 186.5,211.5C 184.302,211.409 183.969,212.075 185.5,213.5C 184.833,213.5 184.5,213.833 184.5,214.5C 185.528,215.074 186.528,215.407 187.5,215.5C 186.626,217.747 186.292,220.08 186.5,222.5C 185.91,232.151 188.243,240.984 193.5,249C 193.167,249.5 192.833,250 192.5,250.5C 190.855,249.304 189.189,248.304 187.5,247.5C 186.542,246.038 185.376,244.705 184,243.5C 183.454,246.899 183.787,250.232 185,253.5C 185.383,254.056 185.883,254.389 186.5,254.5C 186.229,256.38 186.896,257.713 188.5,258.5C 190.39,258.703 191.89,258.037 193,256.5C 195.045,259.423 197.212,262.257 199.5,265C 203.075,266.742 206.741,266.908 210.5,265.5C 213.242,267.667 213.076,268.333 210,267.5C 208.343,268.484 206.677,269.484 205,270.5C 203.203,267.904 201.869,268.237 201,271.5C 200.667,271.167 200.333,270.833 200,270.5C 199.667,271.833 199.333,273.167 199,274.5C 198.549,272.071 197.715,271.904 196.5,274C 197.151,275.308 196.485,276.141 194.5,276.5C 192.003,275.871 190.67,274.204 190.5,271.5C 189.053,270.115 188.053,270.448 187.5,272.5C 185.873,274.63 184.04,276.63 182,278.5C 179.063,274.626 177.229,270.293 176.5,265.5C 176.247,261.96 175.581,258.627 174.5,255.5C 173.167,250.167 173.167,244.833 174.5,239.5C 175.477,236.713 175.81,233.713 175.5,230.5C 176.149,224.806 176.649,219.139 177,213.5C 175.67,214.582 174.17,215.249 172.5,215.5C 170.973,215.427 169.973,216.094 169.5,217.5C 167.703,218.73 165.703,219.396 163.5,219.5C 162.167,219.5 161.5,220.167 161.5,221.5C 158.459,225.596 156.459,230.263 155.5,235.5C 155.703,237.208 156.536,238.541 158,239.5C 159.78,238.361 161.614,237.361 163.5,236.5C 165.781,236.077 167.448,236.744 168.5,238.5C 163.779,243.727 159.612,249.393 156,255.5C 154.733,260.435 153.9,265.435 153.5,270.5C 153.215,272.288 153.548,273.955 154.5,275.5C 155.107,275.376 155.44,275.043 155.5,274.5C 155.5,274.167 155.5,273.833 155.5,273.5C 158.833,272.167 161.167,269.833 162.5,266.5C 165.356,264.907 168.356,263.573 171.5,262.5C 172.298,262.957 172.631,263.624 172.5,264.5C 170.973,264.427 169.973,265.094 169.5,266.5C 166.191,270.815 162.857,275.148 159.5,279.5C 157.896,280.287 157.229,281.62 157.5,283.5C 153.059,291.187 151.393,299.52 152.5,308.5C 151.708,310.257 150.375,311.591 148.5,312.5C 147.902,313.795 147.402,315.128 147,316.5C 146.943,314.09 145.776,312.756 143.5,312.5C 142.725,307.203 142.392,301.87 142.5,296.5C 143.492,292.518 144.492,288.518 145.5,284.5C 141.027,272.368 141.694,260.534 147.5,249C 144.701,241.085 143.868,232.918 145,224.5C 145.387,221.401 146.554,218.734 148.5,216.5C 149.794,215.71 150.961,214.71 152,213.5C 152.812,209.311 152.645,205.311 151.5,201.5C 150.903,201.265 150.57,200.765 150.5,200C 151.117,194.953 151.783,189.953 152.5,185C 151.695,183.887 151.028,182.721 150.5,181.5C 149.415,179.413 147.749,178.08 145.5,177.5C 144.167,175.5 142.833,173.5 141.5,171.5C 141.817,168.466 140.817,167.466 138.5,168.5C 136.205,167.525 134.205,166.192 132.5,164.5C 132.027,163.094 131.027,162.427 129.5,162.5C 123.431,157.321 120.431,150.655 120.5,142.5C 121.677,140.968 123.011,139.468 124.5,138C 122.893,138.019 121.226,138.185 119.5,138.5C 119.762,137.022 119.429,135.689 118.5,134.5C 117.22,136.724 117.553,138.724 119.5,140.5C 119.376,141.107 119.043,141.44 118.5,141.5C 116.5,140.167 114.5,138.833 112.5,137.5C 112.027,136.094 111.027,135.427 109.5,135.5C 107.529,133.192 105.529,130.858 103.5,128.5C 103.88,126.302 103.213,124.635 101.5,123.5C 100.748,120.253 100.248,116.919 100,113.5C 99.3103,111.65 98.1436,110.316 96.5,109.5C 96.0269,108.094 95.0269,107.427 93.5,107.5C 84.4854,99.9686 79.8188,90.802 79.5,80C 80,79.5 80.5,79 81,78.5C 97.2373,83.2015 113.737,88.2015 130.5,93.5 Z M 94.5,92.5 C 98.5,93.5 102.5,94.5 106.5,95.5C 108.214,96.7384 110.214,97.405 112.5,97.5C 119.56,100.101 126.893,102.101 134.5,103.5C 135.78,104.931 137.447,105.598 139.5,105.5C 148.635,108.597 157.968,111.431 167.5,114C 172.954,117.12 177.454,121.287 181,126.5C 188.35,141.208 196.183,155.541 204.5,169.5C 205.89,171.169 206.223,172.836 205.5,174.5C 200.849,174.627 196.515,175.627 192.5,177.5C 190.446,177.635 188.779,176.968 187.5,175.5C 185.164,170.829 182.831,166.162 180.5,161.5C 180.573,159.973 179.906,158.973 178.5,158.5C 178.611,157.883 178.944,157.383 179.5,157C 176.112,152.387 173.112,147.554 170.5,142.5C 170.204,140.597 169.537,138.93 168.5,137.5C 165.211,130.83 159.877,126.497 152.5,124.5C 150.898,122.926 148.898,122.259 146.5,122.5C 146.167,122.5 145.833,122.5 145.5,122.5C 144.07,121.463 142.403,120.796 140.5,120.5C 133.018,119.095 125.684,117.095 118.5,114.5C 117.713,112.896 116.38,112.229 114.5,112.5C 104.92,109.429 97.9202,103.263 93.5,94C 94.056,93.6174 94.3893,93.1174 94.5,92.5 Z M 256.5,159.5 C 256.989,160.995 257.655,162.329 258.5,163.5C 260.69,168.715 263.024,173.882 265.5,179C 264.035,180.774 262.702,182.608 261.5,184.5C 259.5,185.833 257.833,187.5 256.5,189.5C 252.459,194.866 248.126,199.866 243.5,204.5C 243.573,202.973 242.906,201.973 241.5,201.5C 240.527,199.861 239.194,198.527 237.5,197.5C 237.573,195.973 236.906,194.973 235.5,194.5C 230.93,189.428 226.93,183.928 223.5,178C 223.989,176.862 224.322,175.695 224.5,174.5C 226.25,173.341 227.25,171.674 227.5,169.5C 231.294,161.578 233.627,153.244 234.5,144.5C 234.333,142.5 234.167,140.5 234,138.5C 231.479,137.119 229.645,135.119 228.5,132.5C 227.833,131.167 226.833,130.167 225.5,129.5C 222.268,126.434 219.601,122.934 217.5,119C 220.787,115.681 224.787,113.348 229.5,112C 243.515,108.334 256.848,110.001 269.5,117C 270.357,117.689 271.023,118.522 271.5,119.5C 266.216,125.956 260.716,132.289 255,138.5C 253.51,145.59 254.01,152.59 256.5,159.5 Z M 112.5,120.5 C 113.167,120.5 113.833,120.5 114.5,120.5C 127.534,124.605 140.534,128.772 153.5,133C 157.312,136.153 159.979,139.987 161.5,144.5C 160.167,144.5 158.833,144.5 157.5,144.5C 155.485,143.076 153.152,142.41 150.5,142.5C 143.445,140.07 136.112,138.236 128.5,137C 124.589,135.556 121.256,133.389 118.5,130.5C 118.167,129.5 117.5,128.833 116.5,128.5C 115.167,125.845 113.834,123.178 112.5,120.5 Z M 212.5,131.5 C 212.973,132.906 213.973,133.573 215.5,133.5C 218.438,135.934 221.271,138.601 224,141.5C 224.494,143.134 224.66,144.801 224.5,146.5C 223.841,149.455 223.508,152.455 223.5,155.5C 222.4,159.686 220.233,163.353 217,166.5C 214.321,161.131 211.154,156.131 207.5,151.5C 207.573,149.973 206.906,148.973 205.5,148.5C 203.287,145.408 201.621,142.074 200.5,138.5C 200.5,137.833 200.5,137.167 200.5,136.5C 202.841,134.171 205.508,132.171 208.5,130.5C 209.736,131.246 211.07,131.579 212.5,131.5 Z M 284.5,132.5 C 284.856,134.19 285.856,135.19 287.5,135.5C 287.953,136.458 288.619,137.292 289.5,138C 282.816,146.522 277.149,155.689 272.5,165.5C 271.833,165.5 271.167,165.5 270.5,165.5C 270.167,164.5 269.5,163.833 268.5,163.5C 265.302,157.476 263.636,150.976 263.5,144C 263.862,142.775 264.362,141.609 265,140.5C 267.191,139.167 269.024,137.5 270.5,135.5C 272.027,135.573 273.027,134.906 273.5,133.5C 275.244,132.114 277.244,131.114 279.5,130.5C 281.177,131.187 282.844,131.854 284.5,132.5 Z M 173.5,163.5 C 172.791,164.404 171.791,164.737 170.5,164.5C 159.468,163.575 148.801,161.075 138.5,157C 136.34,155.668 134.34,154.168 132.5,152.5C 132.771,150.62 132.104,149.287 130.5,148.5C 129.972,147.153 129.805,145.819 130,144.5C 142.009,147.836 154.176,150.67 166.5,153C 169.241,156.341 171.574,159.841 173.5,163.5 Z M 152.5,170.5 C 152.735,169.903 153.235,169.57 154,169.5C 161.436,171.039 168.936,172.205 176.5,173C 178.864,174.012 180.198,175.345 180.5,177C 171.547,177.531 162.881,176.197 154.5,173C 153.934,172.005 153.267,171.172 152.5,170.5 Z M 247.5,181.5 C 246.094,181.973 245.427,182.973 245.5,184.5C 244.391,184.443 243.391,184.11 242.5,183.5C 241.386,182.115 240.386,180.615 239.5,179C 242.781,172.921 245.781,173.088 248.5,179.5C 248.137,180.183 247.804,180.85 247.5,181.5 Z M 210.5,182.5 C 211.609,182.557 212.609,182.89 213.5,183.5C 215.147,186.473 217.147,189.14 219.5,191.5C 219.167,192.167 218.833,192.833 218.5,193.5C 202.473,194.758 186.806,197.758 171.5,202.5C 169.614,203.361 167.78,204.361 166,205.5C 165.722,204.584 165.222,203.918 164.5,203.5C 164.203,199.233 164.536,195.066 165.5,191C 180.884,189.464 195.884,186.63 210.5,182.5 Z M 316.5,189.5 C 318.607,190.468 320.941,190.802 323.5,190.5C 323.232,192.099 323.566,193.432 324.5,194.5C 324.89,198.394 324.223,202.06 322.5,205.5C 305.534,198.44 287.868,194.44 269.5,193.5C 269.392,191.486 270.058,189.82 271.5,188.5C 272.682,186.162 274.348,184.162 276.5,182.5C 289.608,186.11 302.942,188.444 316.5,189.5 Z M 239.5,215.5 C 238.306,216.272 237.306,217.272 236.5,218.5C 232.587,219.596 228.587,219.762 224.5,219C 222.576,218.729 220.576,217.896 218.5,216.5C 218.573,214.973 217.906,213.973 216.5,213.5C 214.809,212.136 213.142,210.803 211.5,209.5C 210.624,209.369 209.957,209.702 209.5,210.5C 210.373,212.413 211.373,214.247 212.5,216C 208.152,216.415 203.819,216.249 199.5,215.5C 198.486,214.326 197.153,213.66 195.5,213.5C 194.791,212.596 193.791,212.263 192.5,212.5C 192.338,214.527 192.505,216.527 193,218.5C 193.816,219.823 194.983,220.489 196.5,220.5C 197.671,221.345 199.005,222.011 200.5,222.5C 203.713,222.19 206.713,222.523 209.5,223.5C 207.05,223.298 204.717,223.631 202.5,224.5C 200.782,223.776 198.948,223.109 197,222.5C 195.454,223.503 195.287,224.503 196.5,225.5C 199.574,230.909 203.908,234.909 209.5,237.5C 209.611,238.117 209.944,238.617 210.5,239C 207.305,239.181 204.305,239.681 201.5,240.5C 200.262,240.81 200.262,241.31 201.5,242C 207.388,243.563 212.554,246.396 217,250.5C 218.78,249.361 220.614,248.361 222.5,247.5C 224.027,247.573 225.027,246.906 225.5,245.5C 227.048,245.821 227.715,246.821 227.5,248.5C 225.752,251.498 223.085,253.331 219.5,254C 216.052,257.638 213.052,261.471 210.5,265.5C 206.741,266.908 203.075,266.742 199.5,265C 197.212,262.257 195.045,259.423 193,256.5C 191.89,258.037 190.39,258.703 188.5,258.5C 188.34,256.847 187.674,255.514 186.5,254.5C 185.992,252.135 185.325,249.801 184.5,247.5C 185.233,246.913 186.233,246.913 187.5,247.5C 189.189,248.304 190.855,249.304 192.5,250.5C 192.833,250 193.167,249.5 193.5,249C 188.243,240.984 185.91,232.151 186.5,222.5C 188.125,219.35 188.458,216.017 187.5,212.5C 186.817,212.863 186.15,213.196 185.5,213.5C 183.969,212.075 184.302,211.409 186.5,211.5C 188.23,210.974 189.564,209.974 190.5,208.5C 202.34,203.547 214.673,201.713 227.5,203C 231.731,207.062 235.731,211.229 239.5,215.5 Z M 278.5,202.5 C 280.838,204.04 283.505,204.706 286.5,204.5C 292.266,206.549 297.933,208.882 303.5,211.5C 303.672,212.492 303.338,213.158 302.5,213.5C 302.44,212.957 302.107,212.624 301.5,212.5C 301.167,213.833 300.833,215.167 300.5,216.5C 302.005,224.597 301.671,232.597 299.5,240.5C 297.952,240.821 297.285,241.821 297.5,243.5C 296.763,245.305 295.763,246.971 294.5,248.5C 294.808,249.308 295.308,249.975 296,250.5C 298.314,249.267 300.481,247.933 302.5,246.5C 303.338,246.842 303.672,247.508 303.5,248.5C 301.235,248.441 300.902,249.274 302.5,251C 301.923,252.9 301.256,254.733 300.5,256.5C 300.013,257.473 299.513,258.473 299,259.5C 297.981,258.313 296.814,257.313 295.5,256.5C 294.893,256.624 294.56,256.957 294.5,257.5C 292.75,258.659 291.75,260.326 291.5,262.5C 289.559,264.723 287.059,266.056 284,266.5C 278.571,266.723 275.071,264.39 273.5,259.5C 273.573,257.973 272.906,256.973 271.5,256.5C 269.518,253.863 266.852,252.53 263.5,252.5C 262.513,250.527 261.513,248.527 260.5,246.5C 260.97,245.537 261.637,245.537 262.5,246.5C 265.272,247.591 268.105,248.591 271,249.5C 273.807,248.188 276.307,246.521 278.5,244.5C 280.786,244.405 282.786,243.738 284.5,242.5C 286.972,242.635 288.306,241.968 288.5,240.5C 288.5,240.167 288.5,239.833 288.5,239.5C 292.001,239.649 292.334,238.649 289.5,236.5C 288.101,235.11 286.434,234.11 284.5,233.5C 281.571,232.462 278.571,231.296 275.5,230C 272.082,229.027 268.748,228.86 265.5,229.5C 265.771,227.57 266.771,226.236 268.5,225.5C 270.14,224.68 271.807,223.847 273.5,223C 278.699,223.208 284.032,222.875 289.5,222C 291.066,221.392 292.4,220.558 293.5,219.5C 295.982,217.915 296.648,215.915 295.5,213.5C 295.5,212.833 295.167,212.5 294.5,212.5C 292.973,212.427 291.973,213.094 291.5,214.5C 287.695,215.267 283.861,215.933 280,216.5C 278.293,216.492 276.793,216.158 275.5,215.5C 278.414,213.61 278.914,211.277 277,208.5C 275.634,210.362 274.134,212.028 272.5,213.5C 266.065,219.678 258.732,221.011 250.5,217.5C 249.833,216.833 249.167,216.167 248.5,215.5C 252.931,211.508 257.265,207.342 261.5,203C 267.369,202.622 273.036,202.456 278.5,202.5 Z M 311.5,214.5 C 313.5,215.167 315.5,215.833 317.5,216.5C 319.181,218.008 321.181,219.008 323.5,219.5C 327.01,220.478 329.177,222.811 330,226.5C 331.997,230.767 332.497,235.101 331.5,239.5C 330.833,239.167 330.167,238.833 329.5,238.5C 326.593,236.195 323.259,234.862 319.5,234.5C 317.188,233.659 314.855,232.659 312.5,231.5C 312.431,226.586 311.764,221.752 310.5,217C 310.743,216.098 311.077,215.265 311.5,214.5 Z M 242.5,218.5 C 243.5,221.167 244.5,221.167 245.5,218.5C 246.167,218.5 246.5,218.167 246.5,217.5C 247.167,218.167 247.833,218.833 248.5,219.5C 248.833,221.5 249.167,223.5 249.5,225.5C 245.5,225.5 241.5,225.5 237.5,225.5C 238.11,224.609 238.443,223.609 238.5,222.5C 239.793,221.158 240.626,219.491 241,217.5C 241.383,218.056 241.883,218.389 242.5,218.5 Z M 246.5,229.5 C 247.209,230.404 248.209,230.737 249.5,230.5C 254.906,238.882 255.906,247.882 252.5,257.5C 251.218,258.708 251.218,260.042 252.5,261.5C 253.522,261.145 254.189,260.478 254.5,259.5C 262.709,255.681 267.375,258.348 268.5,267.5C 267.29,267.932 266.29,268.599 265.5,269.5C 262.923,269.545 260.923,268.545 259.5,266.5C 255.717,264.897 253.384,266.23 252.5,270.5C 251.263,271.965 250.263,273.632 249.5,275.5C 247.973,275.427 246.973,276.094 246.5,277.5C 241.371,277.611 238.038,275.278 236.5,270.5C 236.167,268.167 234.833,266.833 232.5,266.5C 229.324,264.727 227.657,265.727 227.5,269.5C 225.833,269.5 224.167,269.5 222.5,269.5C 221.71,268.599 220.71,267.932 219.5,267.5C 221.467,257.517 226.8,255.184 235.5,260.5C 236.472,261.751 237.139,261.418 237.5,259.5C 237.457,258.584 237.124,257.917 236.5,257.5C 233.495,248.382 234.162,239.549 238.5,231C 241.063,229.921 243.729,229.421 246.5,229.5 Z M 315.5,235.5 C 321.227,239.894 325.893,245.227 329.5,251.5C 330.263,253.368 331.263,255.035 332.5,256.5C 334.321,260.97 335.321,265.636 335.5,270.5C 334.842,271.398 334.176,272.398 333.5,273.5C 332.817,273.137 332.15,272.804 331.5,272.5C 331.167,271.5 330.5,270.833 329.5,270.5C 326.335,266.077 322.002,263.411 316.5,262.5C 316.351,263.552 316.517,264.552 317,265.5C 319.733,268.062 322.233,270.729 324.5,273.5C 326.507,276.505 328.507,279.505 330.5,282.5C 330.427,284.027 331.094,285.027 332.5,285.5C 333.374,288.919 334.54,292.252 336,295.5C 338.842,306.658 335.008,314.492 324.5,319C 321.118,319.824 317.784,319.657 314.5,318.5C 324.511,306.74 323.511,295.907 311.5,286C 308.258,284.361 304.924,283.361 301.5,283C 301.273,285.369 301.107,287.869 301,290.5C 300.8,292.32 299.966,293.653 298.5,294.5C 297.976,292.694 297.309,291.028 296.5,289.5C 296.319,285.305 294.653,281.805 291.5,279C 293.063,277.264 294.73,275.764 296.5,274.5C 297.637,273.211 298.97,272.211 300.5,271.5C 300.731,274.063 302.065,275.73 304.5,276.5C 303.141,278.009 303.641,278.676 306,278.5C 307.376,278.316 308.209,277.649 308.5,276.5C 308.5,276.167 308.5,275.833 308.5,275.5C 309.931,274.22 310.598,272.553 310.5,270.5C 314.338,259.745 315.338,248.745 313.5,237.5C 313.131,235.007 313.797,234.34 315.5,235.5 Z M 287.5,238.5 C 285.052,239.473 282.385,239.806 279.5,239.5C 274.768,239.622 270.102,239.122 265.5,238C 272.848,237.479 280.181,237.645 287.5,238.5 Z M 276.5,276.5 C 276.821,278.048 277.821,278.715 279.5,278.5C 279.973,279.906 280.973,280.573 282.5,280.5C 282.427,282.027 283.094,283.027 284.5,283.5C 289.2,288.264 292.2,293.931 293.5,300.5C 293.973,301.906 294.973,302.573 296.5,302.5C 300.982,304.581 303.982,303.248 305.5,298.5C 306.167,296.5 306.833,294.5 307.5,292.5C 308.846,294.537 310.18,296.537 311.5,298.5C 311.629,300.216 311.962,301.883 312.5,303.5C 312.5,304.167 312.5,304.833 312.5,305.5C 311.89,306.391 311.557,307.391 311.5,308.5C 309.731,311.277 307.398,313.277 304.5,314.5C 302.597,314.796 300.93,315.463 299.5,316.5C 297.22,316.646 294.887,316.313 292.5,315.5C 291.833,314.167 290.833,313.167 289.5,312.5C 287.15,311.139 284.816,309.806 282.5,308.5C 281.461,306.469 279.795,305.136 277.5,304.5C 277.167,304.5 276.833,304.5 276.5,304.5C 269.482,302.55 262.482,300.217 255.5,297.5C 255.027,296.094 254.027,295.427 252.5,295.5C 249.167,292.824 246.834,289.49 245.5,285.5C 245.833,284.833 246.167,284.167 246.5,283.5C 249.754,283.206 252.421,281.873 254.5,279.5C 255.837,278.685 256.837,277.518 257.5,276C 263.894,274.033 270.227,274.2 276.5,276.5 Z M 237.5,281.5 C 237.973,282.906 238.973,283.573 240.5,283.5C 241.473,283.987 242.473,284.487 243.5,285C 240.286,292.271 234.953,297.271 227.5,300C 215.258,301.134 205.258,305.801 197.5,314C 189.754,317.191 182.92,315.691 177,309.5C 175.921,306.937 175.421,304.271 175.5,301.5C 176.404,300.791 176.737,299.791 176.5,298.5C 177.833,298.5 178.5,297.833 178.5,296.5C 178.733,294.938 179.4,293.605 180.5,292.5C 181.167,294.167 181.833,295.833 182.5,297.5C 183.293,302.776 186.293,304.609 191.5,303C 192.931,302.535 194.097,301.701 195,300.5C 195.941,297.846 196.774,295.179 197.5,292.5C 198.401,291.71 199.068,290.71 199.5,289.5C 206.214,276.812 216.547,272.312 230.5,276C 231.676,279.26 234.009,281.093 237.5,281.5 Z M 209.5,229.5 C 214.363,229.181 219.03,229.514 223.5,230.5C 223.821,232.048 224.821,232.715 226.5,232.5C 226.586,233.496 226.252,234.329 225.5,235C 219.854,236.324 214.854,235.157 210.5,231.5C 210.167,230.833 209.833,230.167 209.5,229.5 Z M 282.5,319.5 C 283.167,320.833 284.167,321.833 285.5,322.5C 287.558,324.927 289.391,327.593 291,330.5C 292.241,336.038 293.741,341.371 295.5,346.5C 294.833,348.833 294.167,351.167 293.5,353.5C 292.662,353.842 292.328,354.508 292.5,355.5C 292.167,355.5 291.833,355.5 291.5,355.5C 290.341,353.75 288.674,352.75 286.5,352.5C 283.695,351.681 280.695,351.181 277.5,351C 281.656,342.37 281.323,333.87 276.5,325.5C 278.593,323.695 279.76,321.362 280,318.5C 280.671,319.252 281.504,319.586 282.5,319.5 Z M 304.5,326.5 C 305.391,327.11 306.391,327.443 307.5,327.5C 310.159,327.917 312.492,328.917 314.5,330.5C 312.416,332.993 312.083,335.66 313.5,338.5C 316.348,348.091 322.348,350.925 331.5,347C 332.823,346.184 333.489,345.017 333.5,343.5C 336.125,342.534 336.125,341.534 333.5,340.5C 329.499,343.381 325.832,343.048 322.5,339.5C 320.958,335.675 321.625,332.341 324.5,329.5C 327.535,328.266 330.535,328.266 333.5,329.5C 335.61,330.453 336.777,332.119 337,334.5C 338.034,341.367 337.367,348.033 335,354.5C 333.634,356.362 332.134,358.028 330.5,359.5C 328.973,359.427 327.973,360.094 327.5,361.5C 326.041,361.567 324.708,361.234 323.5,360.5C 323.443,359.391 323.11,358.391 322.5,357.5C 318.733,349.846 312.566,345.179 304,343.5C 302.774,337.913 300.94,332.579 298.5,327.5C 300.265,326.539 302.265,326.205 304.5,326.5 Z M 308.5,386.5 C 303.993,388.113 299.327,388.779 294.5,388.5C 296.095,385.715 297.095,382.715 297.5,379.5C 298.167,375.5 298.833,371.5 299.5,367.5C 303.418,369.25 306.752,368.583 309.5,365.5C 310.622,363.712 310.789,361.712 310,359.5C 309.005,360.066 308.172,360.733 307.5,361.5C 305.918,361.525 304.251,361.691 302.5,362C 299.53,358.253 300.197,355.253 304.5,353C 310.178,352.973 314.011,355.806 316,361.5C 319.413,371.75 316.913,380.084 308.5,386.5 Z"/></g>
<g><path style="opacity:0.086" fill="#8a8a8a" d="M 106.5,95.5 C 108.898,95.2594 110.898,95.9261 112.5,97.5C 110.214,97.405 108.214,96.7384 106.5,95.5 Z"/></g>
<g><path style="opacity:0.141" fill="#9d9d9d" d="M 130.5,93.5 C 132.553,93.4021 134.22,94.0687 135.5,95.5C 133.447,95.5979 131.78,94.9313 130.5,93.5 Z"/></g>
<g><path style="opacity:0.255" fill="#646464" d="M 394.5,92.5 C 394.833,92.5 395.167,92.5 395.5,92.5C 395.087,96.3375 393.42,99.3375 390.5,101.5C 392.105,98.6223 393.439,95.6223 394.5,92.5 Z"/></g>
<g><path style="opacity:0.051" fill="#838383" d="M 134.5,103.5 C 136.553,103.402 138.22,104.069 139.5,105.5C 137.447,105.598 135.78,104.931 134.5,103.5 Z"/></g>
<g><path style="opacity:0.133" fill="#929292" d="M 268.5,103.5 C 270.819,103.992 272.819,104.992 274.5,106.5C 271.911,106.539 269.911,105.539 268.5,103.5 Z"/></g>
<g><path style="opacity:0.984" fill="#474747" d="M 157.5,101.5 C 160.443,101.98 163.11,102.98 165.5,104.5C 163.695,105.237 162.029,106.237 160.5,107.5C 159.059,106.696 157.559,106.029 156,105.5C 152.489,108.016 150.822,107.016 151,102.5C 152.113,104.8 153.613,105.133 155.5,103.5C 162.22,106.5 162.887,105.833 157.5,101.5 Z"/></g>
<g><path style="opacity:0.047" fill="#838383" d="M 168.5,104.5 C 169.995,104.989 171.329,105.655 172.5,106.5C 170.517,106.843 169.183,106.176 168.5,104.5 Z"/></g>
<g><path style="opacity:0.22" fill="#949494" d="M 93.5,107.5 C 95.0269,107.427 96.0269,108.094 96.5,109.5C 94.9731,109.573 93.9731,108.906 93.5,107.5 Z"/></g>
<g><path style="opacity:0.004" fill="#cbcbcb" d="M 177.5,109.5 C 179.027,109.427 180.027,110.094 180.5,111.5C 178.973,111.573 177.973,110.906 177.5,109.5 Z"/></g>
<g><path style="opacity:0.004" fill="#c8c8c8" d="M 278.5,109.5 C 280.833,109.833 282.167,111.167 282.5,113.5C 280.833,112.5 279.5,111.167 278.5,109.5 Z"/></g>
<g><path style="opacity:0.063" fill="#939393" d="M 114.5,112.5 C 116.38,112.229 117.713,112.896 118.5,114.5C 116.847,114.34 115.514,113.674 114.5,112.5 Z"/></g>
<g><path style="opacity:0.337" fill="#828282" d="M 207.5,111.5 C 207.106,113.71 205.773,115.043 203.5,115.5C 204.326,113.736 205.659,112.402 207.5,111.5 Z"/></g>
<g><path style="opacity:0.887" fill="#19191a" d="M 395.5,106.5 C 393.941,108.624 391.941,110.291 389.5,111.5C 388.82,115.123 387.82,118.623 386.5,122C 386.957,122.414 387.291,122.914 387.5,123.5C 383.593,132.393 377.093,138.726 368,142.5C 367.729,149.049 365.729,155.049 362,160.5C 356.649,163.71 351.816,167.377 347.5,171.5C 346.167,171.5 345.5,172.167 345.5,173.5C 345.068,174.71 344.401,175.71 343.5,176.5C 342.5,176.833 341.833,177.5 341.5,178.5C 340.243,179.818 338.909,181.151 337.5,182.5C 336.571,183.689 336.238,185.022 336.5,186.5C 335.717,184.657 335.05,182.657 334.5,180.5C 338.777,177.411 338.444,175.077 333.5,173.5C 337.484,169.177 336.651,168.51 331,171.5C 330.601,171.272 330.435,170.938 330.5,170.5C 328.268,168.805 325.601,167.638 322.5,167C 324.285,165.837 326.285,165.17 328.5,165C 326.19,164.503 323.857,164.337 321.5,164.5C 332.55,162.901 343.217,159.734 353.5,155C 355.314,152.521 356.981,150.021 358.5,147.5C 359.598,146.399 359.765,145.066 359,143.5C 357.698,144.085 356.531,144.751 355.5,145.5C 347.942,147.545 340.275,149.212 332.5,150.5C 329.171,150.215 326.171,150.882 323.5,152.5C 321.859,153.147 320.526,154.147 319.5,155.5C 318.943,152.95 317.61,150.95 315.5,149.5C 315.5,148.833 315.5,148.167 315.5,147.5C 318.818,135.046 326.151,126.879 337.5,123C 355.501,120.177 372.167,114.01 387.5,104.5C 386.972,105.847 386.805,107.181 387,108.5C 388.011,107.663 389.178,107.33 390.5,107.5C 390.45,105.41 391.45,104.077 393.5,103.5C 393.088,104.782 393.754,105.782 395.5,106.5 Z M 358.5,125.5 C 360.786,125.405 362.786,124.738 364.5,123.5C 368.037,122.733 371.371,121.4 374.5,119.5C 374.833,120 375.167,120.5 375.5,121C 371.933,130.87 365.933,136.037 357.5,136.5C 347.303,139.837 336.97,142.337 326.5,144C 328.981,139.038 332.981,134.705 338.5,131C 345.255,129.352 351.921,127.518 358.5,125.5 Z"/></g>
<g><path style="opacity:0.004" fill="#dfdfdf" d="M 111.5,119.5 C 112.779,118.285 113.779,118.618 114.5,120.5C 113.833,120.5 113.167,120.5 112.5,120.5C 112.5,119.833 112.167,119.5 111.5,119.5 Z"/></g>
<g><path style="opacity:0.224" fill="#b5b5b5" d="M 187.5,118.5 C 188.906,118.973 189.573,119.973 189.5,121.5C 188.094,121.027 187.427,120.027 187.5,118.5 Z"/></g>
<g><path style="opacity:0.18" fill="#ababab" d="M 140.5,120.5 C 142.403,120.796 144.07,121.463 145.5,122.5C 143.302,122.88 141.635,122.213 140.5,120.5 Z"/></g>
<g><path style="opacity:0.143" fill="#939393" d="M 146.5,122.5 C 148.898,122.259 150.898,122.926 152.5,124.5C 150.214,124.405 148.214,123.738 146.5,122.5 Z"/></g>
<g><path style="opacity:0.016" fill="#d9d9d9" d="M 189.5,121.5 C 190.906,121.973 191.573,122.973 191.5,124.5C 190.094,124.027 189.427,123.027 189.5,121.5 Z"/></g>
<g><path style="opacity:0.024" fill="#888888" d="M 286.5,121.5 C 287.71,121.932 288.71,122.599 289.5,123.5C 287.821,123.715 286.821,123.048 286.5,121.5 Z"/></g>
<g><path style="opacity:0.169" fill="#a0a0a0" d="M 364.5,123.5 C 362.786,124.738 360.786,125.405 358.5,125.5C 360.102,123.926 362.102,123.259 364.5,123.5 Z"/></g>
<g><path style="opacity:0.129" fill="#949494" d="M 101.5,123.5 C 103.213,124.635 103.88,126.302 103.5,128.5C 102.069,127.22 101.402,125.553 101.5,123.5 Z"/></g>
<g><path style="opacity:0.051" fill="#cccccc" d="M 116.5,128.5 C 117.5,128.833 118.167,129.5 118.5,130.5C 117.167,130.5 116.5,129.833 116.5,128.5 Z"/></g>
<g><path style="opacity:0.008" fill="#959595" d="M 225.5,129.5 C 226.833,130.167 227.833,131.167 228.5,132.5C 226.5,132.5 225.5,131.5 225.5,129.5 Z"/></g>
<g><path style="opacity:0.169" fill="#888888" d="M 212.5,131.5 C 214.027,131.427 215.027,132.094 215.5,133.5C 213.973,133.573 212.973,132.906 212.5,131.5 Z"/></g>
<g><path style="opacity:0.439" fill="#808080" d="M 284.5,132.5 C 286.144,132.81 287.144,133.81 287.5,135.5C 285.856,135.19 284.856,134.19 284.5,132.5 Z"/></g>
<g><path style="opacity:0.008" fill="#c1c1c1" d="M 273.5,133.5 C 273.027,134.906 272.027,135.573 270.5,135.5C 270.973,134.094 271.973,133.427 273.5,133.5 Z"/></g>
<g><path style="opacity:0.184" fill="#b4b4b4" d="M 109.5,135.5 C 111.027,135.427 112.027,136.094 112.5,137.5C 110.973,137.573 109.973,136.906 109.5,135.5 Z"/></g>
<g><path style="opacity:0.008" fill="#e1e1e1" d="M 200.5,136.5 C 200.5,137.167 200.5,137.833 200.5,138.5C 198.067,138.214 198.067,137.548 200.5,136.5 Z"/></g>
<g><path style="opacity:0.922" fill="#4a4a4a" d="M 120.5,142.5 C 119.508,142.672 118.842,142.338 118.5,141.5C 119.043,141.44 119.376,141.107 119.5,140.5C 117.553,138.724 117.22,136.724 118.5,134.5C 119.429,135.689 119.762,137.022 119.5,138.5C 121.226,138.185 122.893,138.019 124.5,138C 123.011,139.468 121.677,140.968 120.5,142.5 Z"/></g>
<g><path style="opacity:0.016" fill="#8e8e8e" d="M 168.5,137.5 C 169.537,138.93 170.204,140.597 170.5,142.5C 168.787,141.365 168.12,139.698 168.5,137.5 Z"/></g>
<g><path style="opacity:0.302" fill="#646464" d="M 150.5,142.5 C 153.152,142.41 155.485,143.076 157.5,144.5C 154.848,144.59 152.515,143.924 150.5,142.5 Z"/></g>
<g><path style="opacity:0.067" fill="#a7a7a7" d="M 358.5,147.5 C 358.179,145.952 357.179,145.285 355.5,145.5C 356.531,144.751 357.698,144.085 359,143.5C 359.765,145.066 359.598,146.399 358.5,147.5 Z"/></g>
<g><path style="opacity:0.176" fill="#8d8d8d" d="M 205.5,148.5 C 206.906,148.973 207.573,149.973 207.5,151.5C 206.094,151.027 205.427,150.027 205.5,148.5 Z"/></g>
<g><path style="opacity:0.059" fill="#949494" d="M 315.5,147.5 C 315.5,148.167 315.5,148.833 315.5,149.5C 314.833,149.833 314.167,150.167 313.5,150.5C 313.427,148.973 314.094,147.973 315.5,147.5 Z"/></g>
<g><path style="opacity:0.008" fill="#949494" d="M 130.5,148.5 C 132.104,149.287 132.771,150.62 132.5,152.5C 131.326,151.486 130.66,150.153 130.5,148.5 Z"/></g>
<g><path style="opacity:0.049" fill="#939393" d="M 332.5,150.5 C 329.727,151.657 326.727,152.324 323.5,152.5C 326.171,150.882 329.171,150.215 332.5,150.5 Z"/></g>
<g><path style="opacity:0.139" fill="#6b6b6b" d="M 224.5,146.5 C 225.124,146.917 225.457,147.584 225.5,148.5C 225.071,151.029 224.404,153.362 223.5,155.5C 223.508,152.455 223.841,149.455 224.5,146.5 Z"/></g>
<g><path style="opacity:0.259" fill="#8c8c8c" d="M 178.5,158.5 C 179.906,158.973 180.573,159.973 180.5,161.5C 179.094,161.027 178.427,160.027 178.5,158.5 Z"/></g>
<g><path style="opacity:0.1" fill="#adadad" d="M 256.5,159.5 C 258.176,160.183 258.843,161.517 258.5,163.5C 257.655,162.329 256.989,160.995 256.5,159.5 Z"/></g>
<g><path style="opacity:0.22" fill="#969696" d="M 129.5,162.5 C 131.027,162.427 132.027,163.094 132.5,164.5C 130.973,164.573 129.973,163.906 129.5,162.5 Z"/></g>
<g><path style="opacity:0.016" fill="#fbfbfb" d="M 315.5,162.5 C 315.5,163.833 316.167,164.5 317.5,164.5C 316.399,165.598 315.066,165.765 313.5,165C 314.066,164.005 314.733,163.172 315.5,162.5 Z"/></g>
<g><path style="opacity:0.016" fill="#dadada" d="M 173.5,163.5 C 174.289,163.783 174.956,164.283 175.5,165C 173.613,165.78 171.946,165.613 170.5,164.5C 171.791,164.737 172.791,164.404 173.5,163.5 Z"/></g>
<g><path style="opacity:0.149" fill="#b9b9b9" d="M 268.5,163.5 C 269.5,163.833 270.167,164.5 270.5,165.5C 269.167,165.5 268.5,164.833 268.5,163.5 Z"/></g>
<g><path style="opacity:0.861" fill="#1f1f1f" d="M 241.5,192.5 C 241.5,190.5 240.5,189.5 238.5,189.5C 236.157,186.16 233.824,182.827 231.5,179.5C 234.622,173.027 238.955,167.361 244.5,162.5C 249.29,167.855 253.624,173.522 257.5,179.5C 253.227,185.059 248.727,190.392 244,195.5C 242.955,194.627 242.122,193.627 241.5,192.5 Z M 247.5,181.5 C 246.094,181.973 245.427,182.973 245.5,184.5C 244.391,184.443 243.391,184.11 242.5,183.5C 241.386,182.115 240.386,180.615 239.5,179C 242.781,172.921 245.781,173.088 248.5,179.5C 248.137,180.183 247.804,180.85 247.5,181.5 Z"/></g>
<g><path style="opacity:0.212" fill="#8f8f8f" d="M 270.5,165.5 C 271.167,165.5 271.833,165.5 272.5,165.5C 271.833,168.167 271.167,168.167 270.5,165.5 Z"/></g>
<g><path style="opacity:0.192" fill="#818181" d="M 138.5,168.5 C 140.817,167.466 141.817,168.466 141.5,171.5C 140.728,170.306 139.728,169.306 138.5,168.5 Z"/></g>
<g><path style="opacity:0.549" fill="#858585" d="M 204.5,169.5 C 206.293,169.884 207.293,171.05 207.5,173C 207.164,174.03 206.497,174.53 205.5,174.5C 206.223,172.836 205.89,171.169 204.5,169.5 Z"/></g>
<g><path style="opacity:0.122" fill="#969696" d="M 305.5,166.5 C 305.771,168.38 305.104,169.713 303.5,170.5C 303.66,168.847 304.326,167.514 305.5,166.5 Z"/></g>
<g><path style="opacity:0.086" fill="#c4c4c4" d="M 227.5,169.5 C 227.25,171.674 226.25,173.341 224.5,174.5C 224.75,172.326 225.75,170.659 227.5,169.5 Z"/></g>
<g><path style="opacity:0.004" fill="#e7e7e7" d="M 347.5,171.5 C 347.167,172.5 346.5,173.167 345.5,173.5C 345.5,172.167 346.167,171.5 347.5,171.5 Z"/></g>
<g><path style="opacity:0.008" fill="#f4f4f4" d="M 312.5,172.5 C 311.71,173.401 310.71,174.068 309.5,174.5C 309.821,172.952 310.821,172.285 312.5,172.5 Z"/></g>
<g><path style="opacity:0.008" fill="#d0d0d0" d="M 282.5,171.5 C 282.5,172.5 282.5,173.5 282.5,174.5C 280.443,174.043 280.443,173.043 282.5,171.5 Z"/></g>
<g><path style="opacity:0.243" fill="#979797" d="M 145.5,177.5 C 147.749,178.08 149.415,179.413 150.5,181.5C 148.251,180.92 146.585,179.587 145.5,177.5 Z"/></g>
<g><path style="opacity:0.057" fill="#888888" d="M 187.5,175.5 C 188.779,176.968 190.446,177.635 192.5,177.5C 191.081,178.451 189.415,178.784 187.5,178.5C 187.5,177.5 187.5,176.5 187.5,175.5 Z"/></g>
<g><path style="opacity:0.004" fill="#bebebe" d="M 343.5,176.5 C 343.5,177.833 342.833,178.5 341.5,178.5C 341.833,177.5 342.5,176.833 343.5,176.5 Z"/></g>
<g><path style="opacity:0.024" fill="#979797" d="M 210.5,182.5 C 211.947,181.115 212.947,181.448 213.5,183.5C 212.609,182.89 211.609,182.557 210.5,182.5 Z"/></g>
<g><path style="opacity:0.114" fill="#aaaaaa" d="M 247.5,181.5 C 247.573,183.027 246.906,184.027 245.5,184.5C 245.427,182.973 246.094,181.973 247.5,181.5 Z"/></g>
<g><path style="opacity:0.01" fill="#c4c4c4" d="M 242.5,183.5 C 243.391,184.11 244.391,184.443 245.5,184.5C 243.987,187.048 242.987,186.715 242.5,183.5 Z"/></g>
<g><path style="opacity:0.353" fill="#797979" d="M 261.5,184.5 C 260.833,187.167 259.167,188.833 256.5,189.5C 257.833,187.5 259.5,185.833 261.5,184.5 Z"/></g>
<g><path style="opacity:0.176" fill="#9c9c9c" d="M 271.5,188.5 C 270.058,189.82 269.392,191.486 269.5,193.5C 268.761,193.631 268.094,193.464 267.5,193C 268.191,191.933 268.691,190.766 269,189.5C 269.671,188.748 270.504,188.414 271.5,188.5 Z"/></g>
<g><path style="opacity:0.02" fill="#9a9a9a" d="M 238.5,189.5 C 240.5,189.5 241.5,190.5 241.5,192.5C 240.167,191.833 239.167,190.833 238.5,189.5 Z"/></g>
<g><path style="opacity:0.071" fill="#8e8e8e" d="M 316.5,189.5 C 319.167,189.5 321.833,189.5 324.5,189.5C 324.5,191.167 324.5,192.833 324.5,194.5C 323.566,193.432 323.232,192.099 323.5,190.5C 320.941,190.802 318.607,190.468 316.5,189.5 Z"/></g>
<g><path style="opacity:0.024" fill="#c2c2c2" d="M 219.5,191.5 C 220.757,192.623 220.424,193.289 218.5,193.5C 218.833,192.833 219.167,192.167 219.5,191.5 Z"/></g>
<g><path style="opacity:0.22" fill="#ababab" d="M 235.5,194.5 C 236.906,194.973 237.573,195.973 237.5,197.5C 236.094,197.027 235.427,196.027 235.5,194.5 Z"/></g>
<g><path style="opacity:0.141" fill="#a6a6a6" d="M 241.5,201.5 C 242.906,201.973 243.573,202.973 243.5,204.5C 242.094,204.027 241.427,203.027 241.5,201.5 Z"/></g>
<g><path style="opacity:0.455" fill="#373737" d="M 286.5,204.5 C 283.505,204.706 280.838,204.04 278.5,202.5C 279.552,202.649 280.552,202.483 281.5,202C 281.167,201.667 280.833,201.333 280.5,201C 281.973,200.29 282.64,199.124 282.5,197.5C 283.5,197.5 284.5,197.5 285.5,197.5C 285.22,200.388 286.553,201.888 289.5,202C 287.888,202.72 286.388,202.554 285,201.5C 284.5,202 284,202.5 283.5,203C 284.737,203.232 285.737,203.732 286.5,204.5 Z"/></g>
<g><path style="opacity:0.163" fill="#8d8d8d" d="M 171.5,202.5 C 170.015,205.083 167.682,206.416 164.5,206.5C 164.5,205.5 164.5,204.5 164.5,203.5C 165.222,203.918 165.722,204.584 166,205.5C 167.78,204.361 169.614,203.361 171.5,202.5 Z"/></g>
<g><path style="opacity:0.043" fill="#c2c2c2" d="M 190.5,208.5 C 189.564,209.974 188.23,210.974 186.5,211.5C 187.035,209.554 188.368,208.554 190.5,208.5 Z"/></g>
<g><path style="opacity:0.224" fill="#545454" d="M 275.5,215.5 C 275.649,214.448 275.483,213.448 275,212.5C 274.329,213.252 273.496,213.586 272.5,213.5C 274.134,212.028 275.634,210.362 277,208.5C 278.914,211.277 278.414,213.61 275.5,215.5 Z"/></g>
<g><path style="opacity:0.887" fill="#1b1b1c" d="M 275.5,215.5 C 276.793,216.158 278.293,216.492 280,216.5C 283.861,215.933 287.695,215.267 291.5,214.5C 293.027,214.573 294.027,213.906 294.5,212.5C 295.167,212.5 295.5,212.833 295.5,213.5C 294.833,215.5 294.167,217.5 293.5,219.5C 292.4,220.558 291.066,221.392 289.5,222C 284.032,222.875 278.699,223.208 273.5,223C 271.807,223.847 270.14,224.68 268.5,225.5C 267.5,225.5 266.5,225.5 265.5,225.5C 265.33,224.178 265.663,223.011 266.5,222C 265.975,221.308 265.308,220.808 264.5,220.5C 261.192,221.395 257.859,222.229 254.5,223C 253.382,224.074 252.382,225.24 251.5,226.5C 250.868,223.898 249.868,221.564 248.5,219.5C 248.5,218.167 249.167,217.5 250.5,217.5C 258.732,221.011 266.065,219.678 272.5,213.5C 273.496,213.586 274.329,213.252 275,212.5C 275.483,213.448 275.649,214.448 275.5,215.5 Z"/></g>
<g><path style="opacity:0.161" fill="#858585" d="M 186.5,222.5 C 186.292,220.08 186.626,217.747 187.5,215.5C 186.528,215.407 185.528,215.074 184.5,214.5C 185.167,214.5 185.5,214.167 185.5,213.5C 186.15,213.196 186.817,212.863 187.5,212.5C 188.458,216.017 188.125,219.35 186.5,222.5 Z"/></g>
<g><path style="opacity:0.216" fill="#9c9c9c" d="M 294.5,212.5 C 294.027,213.906 293.027,214.573 291.5,214.5C 291.973,213.094 292.973,212.427 294.5,212.5 Z"/></g>
<g><path style="opacity:0.231" fill="#b1b1b1" d="M 303.5,211.5 C 304.598,212.601 304.765,213.934 304,215.5C 303.283,214.956 302.783,214.289 302.5,213.5C 303.338,213.158 303.672,212.492 303.5,211.5 Z"/></g>
<g><path style="opacity:0.125" fill="#a4a4a4" d="M 216.5,213.5 C 217.906,213.973 218.573,214.973 218.5,216.5C 217.094,216.027 216.427,215.027 216.5,213.5 Z"/></g>
<g><path style="opacity:0.094" fill="#676767" d="M 151.5,201.5 C 152.645,205.311 152.812,209.311 152,213.5C 150.961,214.71 149.794,215.71 148.5,216.5C 148.685,214.804 149.519,213.471 151,212.5C 151.499,208.848 151.665,205.182 151.5,201.5 Z"/></g>
<g><path style="opacity:0.004" fill="#c0c0c0" d="M 172.5,215.5 C 172.027,216.906 171.027,217.573 169.5,217.5C 169.973,216.094 170.973,215.427 172.5,215.5 Z"/></g>
<g><path style="opacity:0.043" fill="#afafaf" d="M 195.5,213.5 C 194.414,213.62 193.747,214.287 193.5,215.5C 194.092,217.423 195.092,219.089 196.5,220.5C 194.983,220.489 193.816,219.823 193,218.5C 192.505,216.527 192.338,214.527 192.5,212.5C 193.791,212.263 194.791,212.596 195.5,213.5 Z"/></g>
<g><path style="opacity:0.008" fill="#777777" d="M 239.5,215.5 C 241.5,215.5 242.5,216.5 242.5,218.5C 241.883,218.389 241.383,218.056 241,217.5C 240.626,219.491 239.793,221.158 238.5,222.5C 238.421,221.07 238.754,219.736 239.5,218.5C 238.767,217.913 237.767,217.913 236.5,218.5C 237.306,217.272 238.306,216.272 239.5,215.5 Z"/></g>
<g><path style="opacity:0.012" fill="#bdbdbd" d="M 248.5,215.5 C 249.167,216.167 249.833,216.833 250.5,217.5C 249.167,217.5 248.5,218.167 248.5,219.5C 247.833,218.833 247.167,218.167 246.5,217.5C 246.833,216.5 247.5,215.833 248.5,215.5 Z"/></g>
<g><path style="opacity:0.125" fill="#6d6d6d" d="M 295.5,213.5 C 296.648,215.915 295.982,217.915 293.5,219.5C 294.167,217.5 294.833,215.5 295.5,213.5 Z"/></g>
<g><path style="opacity:0.078" fill="#bcbcbc" d="M 317.5,216.5 C 320.089,216.461 322.089,217.461 323.5,219.5C 321.181,219.008 319.181,218.008 317.5,216.5 Z"/></g>
<g><path style="opacity:0.294" fill="#909090" d="M 242.5,218.5 C 243.5,218.5 244.5,218.5 245.5,218.5C 244.5,221.167 243.5,221.167 242.5,218.5 Z"/></g>
<g><path style="opacity:0.016" fill="#e9e9e9" d="M 163.5,219.5 C 163.167,220.5 162.5,221.167 161.5,221.5C 161.5,220.167 162.167,219.5 163.5,219.5 Z"/></g>
<g><path style="opacity:0.549" fill="#484848" d="M 200.5,222.5 C 204.351,221.191 208.351,221.191 212.5,222.5C 211.675,223.386 210.675,223.719 209.5,223.5C 206.713,222.523 203.713,222.19 200.5,222.5 Z"/></g>
<g><path style="opacity:0.137" fill="#929292" d="M 202.5,224.5 C 200.265,224.205 198.265,224.539 196.5,225.5C 195.287,224.503 195.454,223.503 197,222.5C 198.948,223.109 200.782,223.776 202.5,224.5 Z"/></g>
<g><path style="opacity:0.925" fill="#3d3d3d" d="M 248.5,219.5 C 249.868,221.564 250.868,223.898 251.5,226.5C 252.382,225.24 253.382,224.074 254.5,223C 257.859,222.229 261.192,221.395 264.5,220.5C 265.308,220.808 265.975,221.308 266.5,222C 265.663,223.011 265.33,224.178 265.5,225.5C 266.5,225.5 267.5,225.5 268.5,225.5C 266.771,226.236 265.771,227.57 265.5,229.5C 264.761,229.631 264.094,229.464 263.5,229C 264.833,228 264.833,227 263.5,226C 261.567,225.217 260.067,225.717 259,227.5C 258.411,225.137 256.911,224.137 254.5,224.5C 254.33,225.822 254.663,226.989 255.5,228C 252.949,228.002 250.949,228.836 249.5,230.5C 248.209,230.737 247.209,230.404 246.5,229.5C 247.922,229.25 248.922,228.417 249.5,227C 245.312,226.824 241.312,226.324 237.5,225.5C 241.5,225.5 245.5,225.5 249.5,225.5C 249.167,223.5 248.833,221.5 248.5,219.5 Z"/></g>
<g><path style="opacity:0.165" fill="#909090" d="M 312.5,231.5 C 314.855,232.659 317.188,233.659 319.5,234.5C 317.901,234.232 316.568,234.566 315.5,235.5C 313.797,234.34 313.131,235.007 313.5,237.5C 312.539,235.735 312.205,233.735 312.5,231.5 Z"/></g>
<g><path style="opacity:0.587" fill="#424242" d="M 168.5,238.5 C 167.448,236.744 165.781,236.077 163.5,236.5C 166.39,234.697 169.557,233.364 173,232.5C 173.287,235.727 171.787,237.727 168.5,238.5 Z"/></g>
<g><path style="opacity:0.529" fill="#5b5b5b" d="M 284.5,233.5 C 286.434,234.11 288.101,235.11 289.5,236.5C 287.011,236.759 285.344,235.759 284.5,233.5 Z"/></g>
<g><path style="opacity:0.235" fill="#989898" d="M 175.5,230.5 C 175.81,233.713 175.477,236.713 174.5,239.5C 173.957,239.44 173.624,239.107 173.5,238.5C 174.08,235.689 174.746,233.023 175.5,230.5 Z"/></g>
<g><path style="opacity:0.051" fill="#c6c6c6" d="M 209.5,237.5 C 210.978,239.24 212.644,240.073 214.5,240C 210.179,240.499 205.846,240.666 201.5,240.5C 204.305,239.681 207.305,239.181 210.5,239C 209.944,238.617 209.611,238.117 209.5,237.5 Z"/></g>
<g><path style="opacity:0.012" fill="#c8c8c8" d="M 287.5,238.5 C 288.167,238.5 288.5,238.833 288.5,239.5C 288.5,239.833 288.5,240.167 288.5,240.5C 285.287,240.81 282.287,240.477 279.5,239.5C 282.385,239.806 285.052,239.473 287.5,238.5 Z"/></g>
<g><path style="opacity:0.133" fill="#838383" d="M 329.5,238.5 C 330.167,238.833 330.833,239.167 331.5,239.5C 332.043,239.56 332.376,239.893 332.5,240.5C 330.604,241.639 329.604,240.973 329.5,238.5 Z"/></g>
<g><path style="opacity:0.192" fill="#959595" d="M 284.5,242.5 C 282.786,243.738 280.786,244.405 278.5,244.5C 280.102,242.926 282.102,242.259 284.5,242.5 Z"/></g>
<g><path style="opacity:0.02" fill="#ababab" d="M 299.5,240.5 C 299.068,241.71 298.401,242.71 297.5,243.5C 297.285,241.821 297.952,240.821 299.5,240.5 Z"/></g>
<g><path style="opacity:0.075" fill="#9f9f9f" d="M 343.5,241.5 C 343.598,243.553 342.931,245.22 341.5,246.5C 341.402,244.447 342.069,242.78 343.5,241.5 Z"/></g>
<g><path style="opacity:0.071" fill="#989898" d="M 262.5,246.5 C 261.637,245.537 260.97,245.537 260.5,246.5C 261.513,248.527 262.513,250.527 263.5,252.5C 260.625,250.751 259.292,248.085 259.5,244.5C 261.179,244.285 262.179,244.952 262.5,246.5 Z"/></g>
<g><path style="opacity:0.082" fill="#a0a0a0" d="M 303.5,248.5 C 303.672,247.508 303.338,246.842 302.5,246.5C 302.783,245.711 303.283,245.044 304,244.5C 304.765,246.066 304.598,247.399 303.5,248.5 Z"/></g>
<g><path style="opacity:0.531" fill="#5f5f5f" d="M 187.5,247.5 C 186.233,246.913 185.233,246.913 184.5,247.5C 185.325,249.801 185.992,252.135 186.5,254.5C 185.883,254.389 185.383,254.056 185,253.5C 183.787,250.232 183.454,246.899 184,243.5C 185.376,244.705 186.542,246.038 187.5,247.5 Z"/></g>
<g><path style="opacity:0.247" fill="#979797" d="M 329.5,251.5 C 331.134,252.207 332.468,253.373 333.5,255C 332.944,255.383 332.611,255.883 332.5,256.5C 331.263,255.035 330.263,253.368 329.5,251.5 Z"/></g>
<g><path style="opacity:0.373" fill="#8a8a8a" d="M 303.5,248.5 C 303.977,251.917 302.977,254.584 300.5,256.5C 301.256,254.733 301.923,252.9 302.5,251C 300.902,249.274 301.235,248.441 303.5,248.5 Z"/></g>
<g><path style="opacity:0.133" fill="#9e9e9e" d="M 186.5,254.5 C 187.674,255.514 188.34,256.847 188.5,258.5C 186.896,257.713 186.229,256.38 186.5,254.5 Z"/></g>
<g><path style="opacity:0.216" fill="#bdbdbd" d="M 271.5,256.5 C 272.906,256.973 273.573,257.973 273.5,259.5C 272.094,259.027 271.427,258.027 271.5,256.5 Z"/></g>
<g><path style="opacity:0.255" fill="#858585" d="M 252.5,257.5 C 252.5,258.833 253.167,259.5 254.5,259.5C 254.189,260.478 253.522,261.145 252.5,261.5C 251.218,260.042 251.218,258.708 252.5,257.5 Z"/></g>
<g><path style="opacity:0.047" fill="#b0b0b0" d="M 294.5,257.5 C 294.25,259.674 293.25,261.341 291.5,262.5C 291.75,260.326 292.75,258.659 294.5,257.5 Z"/></g>
<g><path style="opacity:0.051" fill="#a2a2a2" d="M 236.5,257.5 C 237.124,257.917 237.457,258.584 237.5,259.5C 237.139,261.418 236.472,261.751 235.5,260.5C 236.404,259.791 236.737,258.791 236.5,257.5 Z"/></g>
<g><path style="opacity:0.684" fill="#313131" d="M 329.5,270.5 C 327.662,270.023 325.828,269.69 324,269.5C 323.805,270.819 323.972,272.153 324.5,273.5C 322.233,270.729 319.733,268.062 317,265.5C 316.517,264.552 316.351,263.552 316.5,262.5C 322.002,263.411 326.335,266.077 329.5,270.5 Z"/></g>
<g><path style="opacity:0.035" fill="#ababab" d="M 174.5,255.5 C 175.581,258.627 176.247,261.96 176.5,265.5C 174.825,262.493 174.159,259.16 174.5,255.5 Z"/></g>
<g><path style="opacity:0.004" fill="#dcdcdc" d="M 172.5,264.5 C 172.027,265.906 171.027,266.573 169.5,266.5C 169.973,265.094 170.973,264.427 172.5,264.5 Z"/></g>
<g><path style="opacity:0.012" fill="#c6c6c6" d="M 232.5,266.5 C 234.833,266.833 236.167,268.167 236.5,270.5C 234.833,269.5 233.5,268.167 232.5,266.5 Z"/></g>
<g><path style="opacity:0.302" fill="#898989" d="M 268.5,267.5 C 268.179,269.048 267.179,269.715 265.5,269.5C 266.29,268.599 267.29,267.932 268.5,267.5 Z"/></g>
<g><path style="opacity:0.361" fill="#727272" d="M 162.5,266.5 C 161.167,269.833 158.833,272.167 155.5,273.5C 157.5,270.833 159.833,268.5 162.5,266.5 Z"/></g>
<g><path style="opacity:0.22" fill="#8f8f8f" d="M 259.5,266.5 C 260.923,268.545 262.923,269.545 265.5,269.5C 263.965,270.788 262.299,270.788 260.5,269.5C 259.873,268.583 259.539,267.583 259.5,266.5 Z"/></g>
<g><path style="opacity:0.055" fill="#949494" d="M 190.5,271.5 C 189.391,271.557 188.391,271.89 187.5,272.5C 188.053,270.448 189.053,270.115 190.5,271.5 Z"/></g>
<g><path style="opacity:0.122" fill="#a1a1a1" d="M 300.5,271.5 C 298.97,272.211 297.637,273.211 296.5,274.5C 296.707,271.366 298.04,270.366 300.5,271.5 Z"/></g>
<g><path style="opacity:0.008" fill="#aeaeae" d="M 310.5,270.5 C 310.598,272.553 309.931,274.22 308.5,275.5C 308.402,273.447 309.069,271.78 310.5,270.5 Z"/></g>
<g><path style="opacity:0.047" fill="#e6e6e6" d="M 153.5,270.5 C 154.167,271.833 154.833,273.167 155.5,274.5C 155.44,275.043 155.107,275.376 154.5,275.5C 153.548,273.955 153.215,272.288 153.5,270.5 Z"/></g>
<g><path style="opacity:0.429" fill="#636363" d="M 335.5,270.5 C 335.784,272.415 335.451,274.081 334.5,275.5C 334.167,274.167 333.833,274.167 333.5,275.5C 332.094,275.027 331.427,274.027 331.5,272.5C 332.15,272.804 332.817,273.137 333.5,273.5C 334.176,272.398 334.842,271.398 335.5,270.5 Z"/></g>
<g><path style="opacity:0.106" fill="#a7a7a7" d="M 276.5,276.5 C 277.71,276.932 278.71,277.599 279.5,278.5C 277.821,278.715 276.821,278.048 276.5,276.5 Z"/></g>
<g><path style="opacity:0.008" fill="#9e9e9e" d="M 304.5,276.5 C 305.833,277.833 307.167,277.833 308.5,276.5C 308.209,277.649 307.376,278.316 306,278.5C 303.641,278.676 303.141,278.009 304.5,276.5 Z"/></g>
<g><path style="opacity:0.086" fill="#c3c3c3" d="M 345.5,278.5 C 345.204,280.403 344.537,282.07 343.5,283.5C 343.12,281.302 343.787,279.635 345.5,278.5 Z"/></g>
<g><path style="opacity:0.063" fill="#818181" d="M 159.5,279.5 C 159.34,281.153 158.674,282.486 157.5,283.5C 157.229,281.62 157.896,280.287 159.5,279.5 Z"/></g>
<g><path style="opacity:0.004" fill="#d1d1d1" d="M 282.5,280.5 C 283.906,280.973 284.573,281.973 284.5,283.5C 283.094,283.027 282.427,282.027 282.5,280.5 Z"/></g>
<g><path style="opacity:0.09" fill="#d1d1d1" d="M 246.5,283.5 C 246.167,284.167 245.833,284.833 245.5,285.5C 244.243,284.377 244.576,283.711 246.5,283.5 Z"/></g>
<g><path style="opacity:0.071" fill="#aaaaaa" d="M 330.5,282.5 C 331.906,282.973 332.573,283.973 332.5,285.5C 331.094,285.027 330.427,284.027 330.5,282.5 Z"/></g>
<g><path style="opacity:0.024" fill="#8d8d8d" d="M 183.5,283.5 C 184.568,282.566 185.901,282.232 187.5,282.5C 187.5,286.167 187.5,289.833 187.5,293.5C 186.521,290.375 186.187,287.042 186.5,283.5C 185.5,283.5 184.5,283.5 183.5,283.5 Z"/></g>
<g><path style="opacity:0.91" fill="#1a1a1a" d="M 211.5,209.5 C 213.142,210.803 214.809,212.136 216.5,213.5C 216.427,215.027 217.094,216.027 218.5,216.5C 220.576,217.896 222.576,218.729 224.5,219C 228.587,219.762 232.587,219.596 236.5,218.5C 237.767,217.913 238.767,217.913 239.5,218.5C 238.754,219.736 238.421,221.07 238.5,222.5C 238.443,223.609 238.11,224.609 237.5,225.5C 241.312,226.324 245.312,226.824 249.5,227C 248.922,228.417 247.922,229.25 246.5,229.5C 243.729,229.421 241.063,229.921 238.5,231C 234.162,239.549 233.495,248.382 236.5,257.5C 236.737,258.791 236.404,259.791 235.5,260.5C 226.8,255.184 221.467,257.517 219.5,267.5C 219.821,269.048 220.821,269.715 222.5,269.5C 224.167,269.5 225.833,269.5 227.5,269.5C 227.657,265.727 229.324,264.727 232.5,266.5C 233.5,268.167 234.833,269.5 236.5,270.5C 238.038,275.278 241.371,277.611 246.5,277.5C 248.027,277.573 249.027,276.906 249.5,275.5C 250.263,273.632 251.263,271.965 252.5,270.5C 253.535,272.205 253.535,273.872 252.5,275.5C 253.18,276.86 253.847,278.193 254.5,279.5C 252.421,281.873 249.754,283.206 246.5,283.5C 244.576,283.711 244.243,284.377 245.5,285.5C 246.834,289.49 249.167,292.824 252.5,295.5C 252.973,296.906 253.973,297.573 255.5,297.5C 262.482,300.217 269.482,302.55 276.5,304.5C 275.375,306.129 274.041,307.629 272.5,309C 273.056,309.383 273.389,309.883 273.5,310.5C 256.5,301.518 239,300.518 221,307.5C 212.54,311.299 212.374,315.299 220.5,319.5C 222.882,317.785 224.882,315.785 226.5,313.5C 237.33,307.27 248.33,306.937 259.5,312.5C 260.688,313.364 261.855,314.364 263,315.5C 263.399,315.272 263.565,314.938 263.5,314.5C 265.167,315.5 266.5,316.833 267.5,318.5C 266.761,318.369 266.094,318.536 265.5,319C 266.696,319.654 266.696,320.154 265.5,320.5C 264.201,319.91 263.368,318.91 263,317.5C 262.79,319.058 262.29,320.391 261.5,321.5C 261.027,320.094 260.027,319.427 258.5,319.5C 257.866,318.053 256.699,317.387 255,317.5C 253.93,317.528 253.097,317.861 252.5,318.5C 249.279,319.709 246.279,321.376 243.5,323.5C 242.702,323.043 242.369,322.376 242.5,321.5C 242.027,320.094 241.027,319.427 239.5,319.5C 231.79,317.355 226.457,320.022 223.5,327.5C 221.952,327.821 221.285,328.821 221.5,330.5C 218.698,339.939 219.031,349.272 222.5,358.5C 223.69,363.523 223.69,368.523 222.5,373.5C 218.164,380.242 212.997,380.908 207,375.5C 206.293,373.919 205.46,372.419 204.5,371C 205.503,369.454 206.503,369.287 207.5,370.5C 208.134,371.947 209.301,372.613 211,372.5C 212.07,372.472 212.903,372.139 213.5,371.5C 219.193,366.422 218.527,362.255 211.5,359C 206.819,357.519 203.152,358.686 200.5,362.5C 198.259,363.3 197.259,364.966 197.5,367.5C 194.783,382.069 200.616,391.069 215,394.5C 221.923,393.966 227.09,390.799 230.5,385C 228.913,377.959 229.58,371.126 232.5,364.5C 224.868,354.682 224.535,344.682 231.5,334.5C 233.604,336.583 233.938,338.917 232.5,341.5C 233.407,349.46 235.407,357.127 238.5,364.5C 235.183,378.243 236.183,391.577 241.5,404.5C 241.427,406.027 242.094,407.027 243.5,407.5C 245.522,405.469 247.189,403.135 248.5,400.5C 250.213,399.365 250.88,397.698 250.5,395.5C 250.629,393.784 250.962,392.117 251.5,390.5C 252.165,387.686 252.498,384.686 252.5,381.5C 252.684,376.893 252.017,372.56 250.5,368.5C 250.316,364.921 250.983,361.587 252.5,358.5C 254.339,350.642 255.673,342.642 256.5,334.5C 264.755,344.803 264.422,354.803 255.5,364.5C 258.508,371.275 259.175,378.275 257.5,385.5C 258.612,386.265 259.279,387.265 259.5,388.5C 260.287,390.104 261.62,390.771 263.5,390.5C 264.058,391.79 265.058,392.623 266.5,393C 272.636,395.214 278.303,394.381 283.5,390.5C 286.089,389.581 288.089,387.914 289.5,385.5C 290.496,385.586 291.329,385.252 292,384.5C 292.29,386.919 293.124,388.253 294.5,388.5C 299.327,388.779 303.993,388.113 308.5,386.5C 308.511,388.017 309.177,389.184 310.5,390C 310.167,390.333 309.833,390.667 309.5,391C 311.32,391.2 312.653,392.034 313.5,393.5C 312.158,394.793 310.491,395.626 308.5,396C 305,396.5 301.5,397 298,397.5C 292.285,395.309 287.452,396.476 283.5,401C 274.47,404.922 265.97,404.089 258,398.5C 256.716,401.807 255.383,405.141 254,408.5C 249.87,412.13 246.703,416.463 244.5,421.5C 238.721,414.717 233.721,407.384 229.5,399.5C 218.417,405.409 207.917,404.409 198,396.5C 191.438,397.728 184.938,397.395 178.5,395.5C 177.341,393.75 175.674,392.75 173.5,392.5C 170.167,391.167 167.833,388.833 166.5,385.5C 166.25,383.326 165.25,381.659 163.5,380.5C 163.156,377.438 162.489,374.438 161.5,371.5C 152.142,369.641 145.642,364.307 142,355.5C 138.2,344.898 139.367,335.231 145.5,326.5C 146.5,326.167 147.167,325.5 147.5,324.5C 149.736,323.611 151.736,322.278 153.5,320.5C 153.167,319.833 152.833,319.167 152.5,318.5C 153.793,316.897 154.793,315.231 155.5,313.5C 160.405,318.239 166.405,320.239 173.5,319.5C 174.552,319.649 175.552,319.483 176.5,319C 175.529,317.519 174.196,316.685 172.5,316.5C 164.581,308.061 164.581,299.727 172.5,291.5C 174.5,290.167 176.167,288.5 177.5,286.5C 179.03,284.654 181.03,283.654 183.5,283.5C 184.5,283.5 185.5,283.5 186.5,283.5C 186.187,287.042 186.521,290.375 187.5,293.5C 188.496,293.414 189.329,293.748 190,294.5C 190.438,288.285 192.604,282.785 196.5,278C 195.584,277.722 194.918,277.222 194.5,276.5C 196.485,276.141 197.151,275.308 196.5,274C 197.715,271.904 198.549,272.071 199,274.5C 199.333,273.167 199.667,271.833 200,270.5C 200.333,270.833 200.667,271.167 201,271.5C 201.869,268.237 203.203,267.904 205,270.5C 206.677,269.484 208.343,268.484 210,267.5C 213.076,268.333 213.242,267.667 210.5,265.5C 213.052,261.471 216.052,257.638 219.5,254C 223.085,253.331 225.752,251.498 227.5,248.5C 228.613,247.054 228.78,245.387 228,243.5C 227.005,244.066 226.172,244.733 225.5,245.5C 223.973,245.427 222.973,246.094 222.5,247.5C 220.614,248.361 218.78,249.361 217,250.5C 212.554,246.396 207.388,243.563 201.5,242C 200.262,241.31 200.262,240.81 201.5,240.5C 205.846,240.666 210.179,240.499 214.5,240C 212.644,240.073 210.978,239.24 209.5,237.5C 203.908,234.909 199.574,230.909 196.5,225.5C 198.265,224.539 200.265,224.205 202.5,224.5C 204.717,223.631 207.05,223.298 209.5,223.5C 210.675,223.719 211.675,223.386 212.5,222.5C 208.351,221.191 204.351,221.191 200.5,222.5C 199.005,222.011 197.671,221.345 196.5,220.5C 195.092,219.089 194.092,217.423 193.5,215.5C 193.747,214.287 194.414,213.62 195.5,213.5C 196.287,215.104 197.62,215.771 199.5,215.5C 203.819,216.249 208.152,216.415 212.5,216C 211.373,214.247 210.373,212.413 209.5,210.5C 209.957,209.702 210.624,209.369 211.5,209.5 Z M 237.5,281.5 C 237.973,282.906 238.973,283.573 240.5,283.5C 241.473,283.987 242.473,284.487 243.5,285C 240.286,292.271 234.953,297.271 227.5,300C 215.258,301.134 205.258,305.801 197.5,314C 189.754,317.191 182.92,315.691 177,309.5C 175.921,306.937 175.421,304.271 175.5,301.5C 176.404,300.791 176.737,299.791 176.5,298.5C 177.833,298.5 178.5,297.833 178.5,296.5C 178.733,294.938 179.4,293.605 180.5,292.5C 181.167,294.167 181.833,295.833 182.5,297.5C 183.293,302.776 186.293,304.609 191.5,303C 192.931,302.535 194.097,301.701 195,300.5C 195.941,297.846 196.774,295.179 197.5,292.5C 198.401,291.71 199.068,290.71 199.5,289.5C 206.214,276.812 216.547,272.312 230.5,276C 231.676,279.26 234.009,281.093 237.5,281.5 Z M 209.5,229.5 C 214.363,229.181 219.03,229.514 223.5,230.5C 223.821,232.048 224.821,232.715 226.5,232.5C 226.586,233.496 226.252,234.329 225.5,235C 219.854,236.324 214.854,235.157 210.5,231.5C 210.167,230.833 209.833,230.167 209.5,229.5 Z M 208.5,318.5 C 209.189,321.038 210.189,323.538 211.5,326C 208.012,334.04 207.679,342.207 210.5,350.5C 210.376,351.107 210.043,351.44 209.5,351.5C 206.813,351.336 204.146,351.503 201.5,352C 200.944,352.383 200.611,352.883 200.5,353.5C 198.629,353.859 197.129,354.859 196,356.5C 195.311,353.592 194.145,350.925 192.5,348.5C 193.63,343.111 194.964,337.777 196.5,332.5C 198.071,330.365 199.404,328.032 200.5,325.5C 201.167,322.833 202.833,321.167 205.5,320.5C 206.71,320.068 207.71,319.401 208.5,318.5 Z M 165.5,359.5 C 164.844,360.278 164.011,360.944 163,361.5C 160.915,360.876 159.082,359.876 157.5,358.5C 150.585,351.402 148.751,343.069 152,333.5C 155.587,327.598 160.087,326.931 165.5,331.5C 166.348,333.409 166.682,335.409 166.5,337.5C 165.599,338.29 164.932,339.29 164.5,340.5C 162.562,342.163 160.228,342.829 157.5,342.5C 155.018,339.617 153.851,339.95 154,343.5C 155.159,346.493 157.325,348.16 160.5,348.5C 168.55,350.046 173.383,346.713 175,338.5C 175.893,335.084 175.393,331.917 173.5,329C 177.762,329.02 181.595,327.853 185,325.5C 186.825,326.103 188.659,326.77 190.5,327.5C 186.519,332.463 184.519,338.13 184.5,344.5C 177.057,345.135 171.224,348.468 167,354.5C 165.991,356.025 165.491,357.692 165.5,359.5 Z M 181.5,362.5 C 178.007,358.25 177.007,358.584 178.5,363.5C 178.22,366.388 179.553,367.888 182.5,368C 185.257,368.782 187.757,368.282 190,366.5C 190.333,371.5 190.667,376.5 191,381.5C 191.566,383.723 192.4,385.723 193.5,387.5C 191.052,388.473 188.385,388.806 185.5,388.5C 174.054,384.624 169.554,376.624 172,364.5C 172.569,358.326 175.736,354.326 181.5,352.5C 185.949,353.439 187.783,356.106 187,360.5C 185.556,362.155 183.722,362.822 181.5,362.5 Z"/></g>
<g><path style="opacity:0.271" fill="#9f9f9f" d="M 237.5,281.5 C 239.027,281.427 240.027,282.094 240.5,283.5C 238.973,283.573 237.973,282.906 237.5,281.5 Z"/></g>
<g><path style="opacity:0.18" fill="#b5b5b5" d="M 249.5,275.5 C 249.027,276.906 248.027,277.573 246.5,277.5C 246.973,276.094 247.973,275.427 249.5,275.5 Z"/></g>
<g><path style="opacity:0.388" fill="#858585" d="M 219.5,267.5 C 220.71,267.932 221.71,268.599 222.5,269.5C 220.821,269.715 219.821,269.048 219.5,267.5 Z"/></g>
<g><path style="opacity:0.004" fill="#dadada" d="M 225.5,245.5 C 225.027,246.906 224.027,247.573 222.5,247.5C 222.973,246.094 223.973,245.427 225.5,245.5 Z"/></g>
<g><path style="opacity:0.008" fill="#d1d1d1" d="M 227.5,248.5 C 227.715,246.821 227.048,245.821 225.5,245.5C 226.172,244.733 227.005,244.066 228,243.5C 228.78,245.387 228.613,247.054 227.5,248.5 Z"/></g>
<g><path style="opacity:0.012" fill="#aaaaaa" d="M 223.5,230.5 C 225.027,230.427 226.027,231.094 226.5,232.5C 224.821,232.715 223.821,232.048 223.5,230.5 Z"/></g>
<g><path style="opacity:0.184" fill="#c5c5c5" d="M 209.5,229.5 C 209.833,230.167 210.167,230.833 210.5,231.5C 208.576,231.289 208.243,230.623 209.5,229.5 Z"/></g>
<g><path style="opacity:0.131" fill="#9c9c9c" d="M 195.5,213.5 C 197.153,213.66 198.486,214.326 199.5,215.5C 197.62,215.771 196.287,215.104 195.5,213.5 Z"/></g>
<g><path style="opacity:0.263" fill="#8f8f8f" d="M 177.5,286.5 C 176.167,288.5 174.5,290.167 172.5,291.5C 173.167,288.833 174.833,287.167 177.5,286.5 Z"/></g>
<g><path style="opacity:0.133" fill="#ababab" d="M 199.5,289.5 C 199.068,290.71 198.401,291.71 197.5,292.5C 197.285,290.821 197.952,289.821 199.5,289.5 Z"/></g>
<g><path style="opacity:0.014" fill="#eaeaea" d="M 182.5,297.5 C 181.833,295.833 181.167,294.167 180.5,292.5C 180.783,291.711 181.283,291.044 182,290.5C 182.497,292.81 182.663,295.143 182.5,297.5 Z"/></g>
<g><path style="opacity:0.255" fill="#a3a3a3" d="M 296.5,289.5 C 297.309,291.028 297.976,292.694 298.5,294.5C 296.744,293.448 296.077,291.781 296.5,289.5 Z"/></g>
<g><path style="opacity:0.179" fill="#979797" d="M 307.5,292.5 C 306.833,294.5 306.167,296.5 305.5,298.5C 305.336,295.813 305.503,293.146 306,290.5C 306.717,291.044 307.217,291.711 307.5,292.5 Z"/></g>
<g><path style="opacity:0.965" fill="#3b3b3b" d="M 176.5,297.5 C 176.5,297.833 176.5,298.167 176.5,298.5C 176.737,299.791 176.404,300.791 175.5,301.5C 175.649,300.448 175.483,299.448 175,298.5C 173.809,300.847 171.976,301.68 169.5,301C 172.266,300.309 172.933,298.809 171.5,296.5C 172.307,292.603 173.974,291.937 176.5,294.5C 175.347,295.687 175.347,296.687 176.5,297.5 Z"/></g>
<g><path style="opacity:0.008" fill="#999999" d="M 252.5,295.5 C 254.027,295.427 255.027,296.094 255.5,297.5C 253.973,297.573 252.973,296.906 252.5,295.5 Z"/></g>
<g><path style="opacity:0.012" fill="#a7a7a7" d="M 178.5,296.5 C 178.5,297.833 177.833,298.5 176.5,298.5C 176.5,298.167 176.5,297.833 176.5,297.5C 176.842,296.662 177.508,296.328 178.5,296.5 Z"/></g>
<g><path style="opacity:0.208" fill="#6c6c6c" d="M 142.5,296.5 C 142.392,301.87 142.725,307.203 143.5,312.5C 141.994,309.644 141.328,306.477 141.5,303C 141.504,300.639 141.837,298.473 142.5,296.5 Z"/></g>
<g><path style="opacity:0.2" fill="#9e9e9e" d="M 293.5,300.5 C 295.027,300.427 296.027,301.094 296.5,302.5C 294.973,302.573 293.973,301.906 293.5,300.5 Z"/></g>
<g><path style="opacity:0.286" fill="#a1a1a1" d="M 311.5,298.5 C 313.345,299.995 313.678,301.662 312.5,303.5C 311.962,301.883 311.629,300.216 311.5,298.5 Z"/></g>
<g><path style="opacity:0.102" fill="#a1a1a1" d="M 277.5,304.5 C 279.795,305.136 281.461,306.469 282.5,308.5C 280.246,307.876 278.579,306.543 277.5,304.5 Z"/></g>
<g><path style="opacity:0.071" fill="#b5b5b5" d="M 312.5,305.5 C 313.715,306.779 313.382,307.779 311.5,308.5C 311.557,307.391 311.89,306.391 312.5,305.5 Z"/></g>
<g><path style="opacity:0.039" fill="#c1c1c1" d="M 259.5,312.5 C 261.38,312.229 262.713,312.896 263.5,314.5C 263.565,314.938 263.399,315.272 263,315.5C 261.855,314.364 260.688,313.364 259.5,312.5 Z"/></g>
<g><path style="opacity:0.051" fill="#b7b7b7" d="M 289.5,312.5 C 290.833,313.167 291.833,314.167 292.5,315.5C 290.5,315.5 289.5,314.5 289.5,312.5 Z"/></g>
<g><path style="opacity:0.094" fill="#9c9c9c" d="M 304.5,314.5 C 303.365,316.213 301.698,316.88 299.5,316.5C 300.93,315.463 302.597,314.796 304.5,314.5 Z"/></g>
<g><path style="opacity:0.231" fill="#787878" d="M 226.5,313.5 C 224.882,315.785 222.882,317.785 220.5,319.5C 221.478,316.522 223.478,314.522 226.5,313.5 Z"/></g>
<g><path style="opacity:0.161" fill="#909090" d="M 172.5,316.5 C 174.196,316.685 175.529,317.519 176.5,319C 175.552,319.483 174.552,319.649 173.5,319.5C 173.443,318.391 173.11,317.391 172.5,316.5 Z"/></g>
<g><path style="opacity:0.086" fill="#a0a0a0" d="M 252.5,318.5 C 253.097,317.861 253.93,317.528 255,317.5C 256.699,317.387 257.866,318.053 258.5,319.5C 256.565,318.85 254.565,318.517 252.5,318.5 Z"/></g>
<g><path style="opacity:0.059" fill="#aaaaaa" d="M 208.5,318.5 C 207.71,319.401 206.71,320.068 205.5,320.5C 205.821,318.952 206.821,318.285 208.5,318.5 Z"/></g>
<g><path style="opacity:0.554" fill="#2f2f2f" d="M 152.5,308.5 C 153.737,309.965 154.737,311.632 155.5,313.5C 154.793,315.231 153.793,316.897 152.5,318.5C 152.833,319.167 153.167,319.833 153.5,320.5C 151.736,322.278 149.736,323.611 147.5,324.5C 147.5,324.167 147.5,323.833 147.5,323.5C 148.512,321.9 148.012,320.566 146,319.5C 144.589,317.35 143.755,315.016 143.5,312.5C 145.776,312.756 146.943,314.09 147,316.5C 147.402,315.128 147.902,313.795 148.5,312.5C 150.375,311.591 151.708,310.257 152.5,308.5 Z"/></g>
<g><path style="opacity:0.196" fill="#9a9a9a" d="M 239.5,319.5 C 241.027,319.427 242.027,320.094 242.5,321.5C 240.973,321.573 239.973,320.906 239.5,319.5 Z"/></g>
<g><path style="opacity:0.106" fill="#9b9b9b" d="M 258.5,319.5 C 260.027,319.427 261.027,320.094 261.5,321.5C 259.973,321.573 258.973,320.906 258.5,319.5 Z"/></g>
<g><path style="opacity:0.188" fill="#b3b3b3" d="M 282.5,319.5 C 284.5,319.5 285.5,320.5 285.5,322.5C 284.167,321.833 283.167,320.833 282.5,319.5 Z"/></g>
<g><path style="opacity:0.243" fill="#a4a4a4" d="M 147.5,323.5 C 147.5,323.833 147.5,324.167 147.5,324.5C 147.167,325.5 146.5,326.167 145.5,326.5C 145.427,324.973 146.094,323.973 147.5,323.5 Z"/></g>
<g><path style="opacity:0.065" fill="#888888" d="M 304.5,326.5 C 302.265,326.205 300.265,326.539 298.5,327.5C 297.957,327.44 297.624,327.107 297.5,326.5C 299.686,325.779 301.853,325.113 304,324.5C 304.464,325.094 304.631,325.761 304.5,326.5 Z"/></g>
<g><path style="opacity:0.082" fill="#bababa" d="M 200.5,325.5 C 199.404,328.032 198.071,330.365 196.5,332.5C 196.584,329.318 197.917,326.985 200.5,325.5 Z"/></g>
<g><path style="opacity:0.2" fill="#a4a4a4" d="M 307.5,327.5 C 310.167,327.5 312.833,327.5 315.5,327.5C 315.737,328.791 315.404,329.791 314.5,330.5C 312.492,328.917 310.159,327.917 307.5,327.5 Z"/></g>
<g><path style="opacity:0.016" fill="#aeaeae" d="M 333.5,329.5 C 330.535,328.266 327.535,328.266 324.5,329.5C 324.611,328.883 324.944,328.383 325.5,328C 326.833,327.833 328.167,327.667 329.5,327.5C 331.333,327.585 332.666,328.252 333.5,329.5 Z"/></g>
<g><path style="opacity:0.129" fill="#949494" d="M 223.5,327.5 C 223.068,328.71 222.401,329.71 221.5,330.5C 221.285,328.821 221.952,327.821 223.5,327.5 Z"/></g>
<g><path style="opacity:0.039" fill="#a2a2a2" d="M 314.5,330.5 C 313.908,333.127 313.575,335.794 313.5,338.5C 312.083,335.66 312.416,332.993 314.5,330.5 Z"/></g>
<g><path style="opacity:0.196" fill="#cecece" d="M 166.5,337.5 C 166.715,339.179 166.048,340.179 164.5,340.5C 164.932,339.29 165.599,338.29 166.5,337.5 Z"/></g>
<g><path style="opacity:0.353" fill="#8f8f8f" d="M 322.5,339.5 C 325.832,343.048 329.499,343.381 333.5,340.5C 336.125,341.534 336.125,342.534 333.5,343.5C 331.066,343.352 328.399,343.186 325.5,343C 323.574,342.578 322.574,341.411 322.5,339.5 Z"/></g>
<g><path style="opacity:0.043" fill="#909090" d="M 157.5,342.5 C 156.624,342.369 155.957,342.702 155.5,343.5C 157.006,345.401 158.673,347.068 160.5,348.5C 157.325,348.16 155.159,346.493 154,343.5C 153.851,339.95 155.018,339.617 157.5,342.5 Z"/></g>
<g><path style="opacity:0.176" fill="#878787" d="M 269.5,342.5 C 269.884,346.489 269.217,350.155 267.5,353.5C 267.808,349.64 268.475,345.974 269.5,342.5 Z"/></g>
<g><path style="opacity:0.223" fill="#a1a1a1" d="M 209.5,351.5 C 206.655,352.344 203.655,353.01 200.5,353.5C 200.611,352.883 200.944,352.383 201.5,352C 204.146,351.503 206.813,351.336 209.5,351.5 Z"/></g>
<g><path style="opacity:0.047" fill="#a9a9a9" d="M 295.5,346.5 C 296.885,349.285 296.218,351.618 293.5,353.5C 294.167,351.167 294.833,348.833 295.5,346.5 Z"/></g>
<g><path style="opacity:0.129" fill="#828282" d="M 286.5,352.5 C 288.674,352.75 290.341,353.75 291.5,355.5C 289.326,355.25 287.659,354.25 286.5,352.5 Z"/></g>
<g><path style="opacity:0.118" fill="#818181" d="M 322.5,357.5 C 323.11,358.391 323.443,359.391 323.5,360.5C 321.618,359.779 321.285,358.779 322.5,357.5 Z"/></g>
<g><path style="opacity:0.167" fill="#999999" d="M 181.5,362.5 C 180.504,362.586 179.671,362.252 179,361.5C 178.536,362.094 178.369,362.761 178.5,363.5C 177.007,358.584 178.007,358.25 181.5,362.5 Z"/></g>
<g><path style="opacity:0.231" fill="#5b5b5b" d="M 309.5,365.5 C 309.843,363.517 309.176,362.183 307.5,361.5C 308.172,360.733 309.005,360.066 310,359.5C 310.789,361.712 310.622,363.712 309.5,365.5 Z"/></g>
<g><path style="opacity:0.239" fill="#b0b0b0" d="M 330.5,359.5 C 330.027,360.906 329.027,361.573 327.5,361.5C 327.973,360.094 328.973,359.427 330.5,359.5 Z"/></g>
<g><path style="opacity:0.137" fill="#9b9b9b" d="M 157.5,358.5 C 159.082,359.876 160.915,360.876 163,361.5C 164.011,360.944 164.844,360.278 165.5,359.5C 165.688,361.103 165.188,362.437 164,363.5C 162.184,362.671 160.351,361.837 158.5,361C 157.748,360.329 157.414,359.496 157.5,358.5 Z"/></g>
<g><path style="opacity:0.231" fill="#a2a2a2" d="M 323.5,360.5 C 324.708,361.234 326.041,361.567 327.5,361.5C 327.083,362.124 326.416,362.457 325.5,362.5C 324.287,362.253 323.62,361.586 323.5,360.5 Z"/></g>
<g><path style="opacity:0.055" fill="#bdbdbd" d="M 200.5,362.5 C 199.737,364.368 198.737,366.035 197.5,367.5C 197.259,364.966 198.259,363.3 200.5,362.5 Z"/></g>
<g><path style="opacity:0.227" fill="#888888" d="M 252.5,358.5 C 250.983,361.587 250.316,364.921 250.5,368.5C 248.849,364.734 249.516,361.4 252.5,358.5 Z"/></g>
<g><path style="opacity:0.222" fill="#8f8f8f" d="M 222.5,358.5 C 223.973,361.017 224.64,363.85 224.5,367C 224.333,368.833 224.167,370.667 224,372.5C 223.617,373.056 223.117,373.389 222.5,373.5C 223.69,368.523 223.69,363.523 222.5,358.5 Z"/></g>
<g><path style="opacity:0.114" fill="#acacac" d="M 299.5,367.5 C 298.833,371.5 298.167,375.5 297.5,379.5C 297.777,374.767 297.443,370.1 296.5,365.5C 297.781,365.016 298.781,365.683 299.5,367.5 Z"/></g>
<g><path style="opacity:0.063" fill="#6e6e6e" d="M 213.5,371.5 C 212.903,372.139 212.07,372.472 211,372.5C 209.301,372.613 208.134,371.947 207.5,370.5C 209.577,369.477 211.577,369.81 213.5,371.5 Z"/></g>
<g><path style="opacity:0.408" fill="#757575" d="M 282.5,370.5 C 281.107,371.26 279.607,371.926 278,372.5C 276.93,372.472 276.097,372.139 275.5,371.5C 277.57,371.551 279.403,370.885 281,369.5C 281.765,369.57 282.265,369.903 282.5,370.5 Z"/></g>
<g><path style="opacity:0.358" fill="#646464" d="M 250.5,368.5 C 252.017,372.56 252.684,376.893 252.5,381.5C 252.498,384.686 252.165,387.686 251.5,390.5C 251.635,383.138 251.302,375.804 250.5,368.5 Z"/></g>
<g><path style="opacity:0.008" fill="#d8d8d8" d="M 282.5,373.5 C 282.5,375.5 281.5,376.5 279.5,376.5C 280.167,375.167 281.167,374.167 282.5,373.5 Z"/></g>
<g><path style="opacity:0.047" fill="#cecece" d="M 163.5,380.5 C 165.25,381.659 166.25,383.326 166.5,385.5C 164.75,384.341 163.75,382.674 163.5,380.5 Z"/></g>
<g><path style="opacity:0.153" fill="#999999" d="M 193.5,387.5 C 194.043,387.56 194.376,387.893 194.5,388.5C 191.355,389.803 188.355,389.803 185.5,388.5C 188.385,388.806 191.052,388.473 193.5,387.5 Z"/></g>
<g><path style="opacity:0.114" fill="#919191" d="M 289.5,385.5 C 288.089,387.914 286.089,389.581 283.5,390.5C 284.911,388.086 286.911,386.419 289.5,385.5 Z"/></g>
<g><path style="opacity:0.004" fill="#c0c0c0" d="M 259.5,388.5 C 261.153,388.66 262.486,389.326 263.5,390.5C 261.62,390.771 260.287,390.104 259.5,388.5 Z"/></g>
<g><path style="opacity:0.216" fill="#969696" d="M 173.5,392.5 C 175.674,392.75 177.341,393.75 178.5,395.5C 176.326,395.25 174.659,394.25 173.5,392.5 Z"/></g>
<g><path style="opacity:0.067" fill="#919191" d="M 250.5,395.5 C 250.88,397.698 250.213,399.365 248.5,400.5C 248.796,398.597 249.463,396.93 250.5,395.5 Z"/></g>
<g><path style="opacity:0.157" fill="#8f8f8f" d="M 241.5,404.5 C 242.906,404.973 243.573,405.973 243.5,407.5C 242.094,407.027 241.427,406.027 241.5,404.5 Z"/></g>
</svg>
